<?xml version="1.0" standalone="no"?>
<!DOCTYPE svg PUBLIC "-//W3C//DTD SVG 20010904//EN"
 "http://www.w3.org/TR/2001/REC-SVG-20010904/DTD/svg10.dtd">
<svg version="1.0" xmlns="http://www.w3.org/2000/svg"
 width="16.000000pt" height="16.000000pt" viewBox="0 0 16.000000 16.000000"
 preserveAspectRatio="xMidYMid meet">
<metadata>
Created by potrace 1.11, written by Peter Selinger 2001-2013
</metadata>
<g transform="translate(0.000000,16.000000) scale(0.002286,-0.002286)"
fill="#000000" stroke="none">
<path d="M1180 6993 c-19 -2 -70 -10 -114 -19 -558 -108 -975 -551 -1051
-1114 -22 -157 -22 -4563 0 -4720 30 -224 120 -445 252 -620 48 -63 178 -194
243 -245 178 -138 400 -229 630 -260 157 -22 4563 -22 4720 0 230 31 452 122
630 260 65 51 195 182 243 245 132 175 222 396 252 620 22 157 22 4563 0 4720
-59 440 -323 807 -721 1004 -93 45 -197 81 -324 112 -71 17 -195 18 -2400 20
-1279 0 -2341 -1 -2360 -3z m3048 -1644 c514 -55 952 -361 1185 -825 97 -194
145 -386 154 -626 l6 -158 63 -35 c238 -133 418 -368 495 -645 21 -76 24 -105
23 -270 0 -171 -2 -192 -27 -273 -126 -410 -451 -695 -867 -757 -54 -8 -576
-10 -1860 -8 l-1785 3 -100 27 c-375 103 -654 382 -757 758 -20 74 -23 107
-22 260 0 147 4 188 22 253 50 183 145 346 277 480 138 138 290 224 489 276
l98 26 24 95 c88 348 377 636 729 725 114 29 278 41 372 28 l62 -10 64 86 c85
114 242 263 358 340 300 201 647 288 997 250z"/>
</g>
</svg>
