<?xml version="1.0" standalone="no"?>
<!DOCTYPE svg PUBLIC "-//W3C//DTD SVG 1.1//EN" "http://www.w3.org/Graphics/SVG/1.1/DTD/svg11.dtd" >
<svg>
<metadata>
Created by FontForge 20120731 at Thu Oct 27 12:32:29 2016
 By ,,,
(c) 1989, 1991, 2002 Adobe Systems Incorporated. All rights reserved.
</metadata>
<defs>
<font id="BauerBodoniStd-BoldItalic" horiz-adv-x="556" >
  <font-face 
    font-family="Bauer Bodoni Std"
    font-weight="700"
    font-style="italic"
    font-stretch="normal"
    units-per-em="1000"
    panose-1="2 7 7 3 8 7 5 9 3 3"
    ascent="735"
    descent="-265"
    x-height="446"
    cap-height="704"
    bbox="-207 -288 1065 964"
    underline-thickness="50"
    underline-position="-50"
    slope="-12"
    unicode-range="U+0020-FB02"
  />
<missing-glyph horiz-adv-x="586" 
d="M86 0v700h500v-700h-500zM336 395l170 255h-340zM366 350l170 -255v510zM166 50h340l-170 255zM136 605v-510l170 255z" />
    <glyph glyph-name="f_i" unicode="fi" horiz-adv-x="611" 
d="M49 416l4 18h73q94 301 329 301q30 0 55 -4.5t49 -16t37.5 -33t13.5 -52.5t-20.5 -49.5t-52.5 -18.5q-25 0 -45 17.5t-20 41.5t13.5 39.5t27 23.5t13.5 13q0 14 -21 20.5t-39 6.5q-35 0 -65 -14.5t-52 -43t-37 -53t-28 -65.5t-18 -59.5t-13 -53.5h222q61 0 92 22
l-109 -357q-15 -53 -15 -54q0 -21 18 -21q21 0 47 28.5t38 52.5l14 -8q-62 -109 -148 -109q-31 0 -57 23t-26 55q0 24 12 64l89 286h-180l-56 -256q-6 -26 -20.5 -71t-41 -108t-57.5 -116.5t-72 -91.5t-82 -38q-30 0 -56.5 17t-26.5 46q0 32 18 48.5t46 16.5q30 0 46 -16.5
t16 -38.5t-13 -36.5t-30 -16.5v-2q46 0 67 35.5t36 121.5q9 48 23.5 129t23.5 129.5t19.5 105t18 91t12.5 51.5h-72z" />
    <glyph glyph-name="f_l" unicode="fl" horiz-adv-x="611" 
d="M49 416l4 18h73q94 301 331 301q64 0 94 -42l93 42l-186 -636q-15 -53 -15 -54q0 -21 18 -21q21 0 47 28.5t38 52.5l14 -8q-62 -109 -148 -109q-31 0 -57 23t-26 55q0 24 12 64l137 468q-48 11 -48 52q0 20 8 33t16 18.5t8 8.5q0 5 -8.5 9t-18.5 4q-25 0 -47 -10.5
t-38.5 -31.5t-29 -42.5t-23.5 -53.5t-17.5 -53.5t-15 -54t-11.5 -43.5h86l-4 -18h-85l-56 -256q-6 -26 -20.5 -71t-41 -108t-57.5 -116.5t-72 -91.5t-82 -38q-30 0 -56.5 17t-26.5 46q0 32 18 48.5t46 16.5q30 0 46 -16.5t16 -38.5t-13 -36.5t-30 -16.5v-2q46 0 67 35.5
t36 121.5q9 48 23.5 129t23.5 129.5t19.5 105t18 91t12.5 51.5h-72z" />
    <glyph glyph-name=".notdef" horiz-adv-x="586" 
d="M86 0v700h500v-700h-500zM336 395l170 255h-340zM366 350l170 -255v510zM166 50h340l-170 255zM136 605v-510l170 255z" />
    <glyph glyph-name=".null" horiz-adv-x="0" 
 />
    <glyph glyph-name="nonmarkingreturn" horiz-adv-x="333" 
 />
    <glyph glyph-name="space" unicode=" " horiz-adv-x="278" 
 />
    <glyph glyph-name="exclam" unicode="!" horiz-adv-x="333" 
d="M142 189l-12 3q46 199 48 304q0 62 -24 98q78 42 127 126q20 -95 58 -133q-26 -19 -50.5 -54.5t-47 -85t-37.5 -88t-35 -95.5t-27 -75zM173 78q0 -31 -22.5 -58.5t-55.5 -27.5q-27 0 -43.5 17t-16.5 41q0 31 22.5 58.5t55.5 27.5q27 0 43.5 -17t16.5 -41z" />
    <glyph glyph-name="quotedbl" unicode="&#x22;" horiz-adv-x="500" 
d="M177 443l-15 167q-4 30 -4 44q0 66 45 66t45 -66q0 -5 -0.5 -12.5t-1.5 -17t-1 -14.5l-16 -167q-4 -31 -26 -31t-26 31zM337 443l-15 167q-4 30 -4 44q0 66 45 66t45 -66q0 -5 -0.5 -12.5t-1.5 -17t-1 -14.5l-16 -167q-4 -31 -26 -31t-26 31z" />
    <glyph glyph-name="numbersign" unicode="#" 
d="M116 0l29 210h-96l10 72h97l18 140h-96l10 72h96l30 210h77l-29 -210h114l29 210h78l-29 -210h96l-10 -72h-97l-18 -140h96l-10 -72h-96l-30 -210h-77l29 210h-114l-29 -210h-78zM347 282l18 140h-113l-18 -140h113z" />
    <glyph glyph-name="dollar" unicode="$" 
d="M314 467l65 226q-3 1 -10 1q-39 0 -75.5 -12t-63.5 -40.5t-27 -68.5q0 -33 28.5 -56.5t82.5 -49.5zM290 308l-85 -293q20 -5 54 -5q81 0 130 47t49 129q0 27 -23 51t-41 33t-69 31q-10 5 -15 7zM402 690l-68 -232q4 -2 26.5 -12.5t28.5 -13.5t26 -13.5t26.5 -15.5
t22.5 -16t22 -18.5t16.5 -19.5t14.5 -23t7.5 -24.5t3.5 -28.5q0 -117 -77 -199t-192 -82q-29 0 -59 7l-33 -115h-23l35 120q-36 11 -86 38t-65 27q-28 0 -45 -36l-13 5q60 184 75 240l15 -5q0 -5 -1.5 -20.5t-1.5 -22.5q0 -175 127 -210l87 297q-33 15 -51.5 26t-40.5 31.5
t-32 50.5t-10 71q0 81 61.5 148.5t162.5 67.5q18 0 23 -1l32 109h23l-32 -111q44 -7 100.5 -32.5t65.5 -25.5q5 0 9.5 4.5t10 12.5t6.5 9l12 -4q-38 -111 -62 -206l-15 3q3 23 3 44q0 68 -36 117t-99 59z" />
    <glyph glyph-name="percent" unicode="%" horiz-adv-x="1000" 
d="M385 636q0 64 -54 64q-29 0 -55.5 -36.5t-42.5 -86t-25.5 -92.5t-9.5 -63q0 -30 13 -50t41 -20q29 0 55.5 35t42.5 83t25.5 93.5t9.5 72.5zM242 -16l465 736h43l-464 -736h-44zM802 288q0 64 -54 64q-29 0 -55.5 -36.5t-42.5 -86t-25.5 -92.5t-9.5 -63q0 -30 13 -50
t41 -20q29 0 55.5 35t42.5 83t25.5 93.5t9.5 72.5zM251 340q-62 0 -93.5 40.5t-31.5 96.5q0 95 62 165t141 70q65 0 96.5 -41.5t31.5 -96.5q0 -89 -59.5 -161.5t-146.5 -72.5zM668 -8q-62 0 -93.5 40.5t-31.5 96.5q0 95 62 165t141 70q65 0 96.5 -41.5t31.5 -96.5
q0 -89 -59.5 -161.5t-146.5 -72.5z" />
    <glyph glyph-name="ampersand" unicode="&#x26;" horiz-adv-x="778" 
d="M685 123l16 -6q-17 -52 -61.5 -92.5t-95.5 -40.5q-46 0 -81.5 27t-67.5 86q-92 -113 -194 -113q-64 0 -111.5 49.5t-47.5 113.5q0 20 4 39t9 34t17 30.5t20 25.5t26 23.5t26.5 20t31.5 18.5t31 16t33.5 16.5t31.5 15.5q-15 53 -15 100q0 74 43.5 128t116.5 54
q53 0 86.5 -29.5t33.5 -82.5q0 -46 -41 -82t-94 -58q35 -95 77 -184q49 59 83 86.5t73 27.5q32 0 53 -22t21 -52q0 -38 -20.5 -57t-53.5 -19q-26 0 -45 16.5t-19 42.5q0 20 7 35q-2 4 -8 4q-11 0 -36 -24.5t-46 -56.5q4 -8 16 -33t22 -43t24 -38.5t31 -31.5t35 -11
q23 0 42 21t27 46zM277 369q-50 -20 -76.5 -61t-26.5 -96q-6 -57 28.5 -114.5t79.5 -59.5q50 0 102 76q-62 131 -107 255zM519 561q0 37 -24 63t-61 26q-35 0 -52 -22.5t-17 -58.5q0 -53 31 -138q34 15 57.5 29.5t44.5 41.5t21 59z" />
    <glyph glyph-name="quotesingle" unicode="'" horiz-adv-x="278" 
d="M141 443l-15 167q-4 30 -4 44q0 66 45 66t45 -66q0 -5 -0.5 -12.5t-1.5 -17t-1 -14.5l-16 -167q-4 -31 -26 -31t-26 31z" />
    <glyph glyph-name="parenleft" unicode="(" horiz-adv-x="333" 
d="M147 -237l-51 -14q-2 13 -8.5 45.5t-9.5 49t-7.5 43t-6 50t-1.5 46.5q0 218 81 411.5t236 346.5l32 -37q-295 -314 -295 -712q0 -83 30 -229z" />
    <glyph glyph-name="parenright" unicode=")" horiz-adv-x="333" 
d="M-78 -251l-32 37q295 314 295 712q0 83 -30 229l51 14q2 -13 8.5 -45.5t9.5 -49t7.5 -43t6 -50t1.5 -46.5q0 -218 -81 -411.5t-236 -346.5z" />
    <glyph glyph-name="asterisk" unicode="*" 
d="M198 519h-34q-13 0 -13 10q0 5 6.5 10t13 9.5t6.5 7.5q0 6 -16.5 26t-16.5 27q0 9 11 9q9 0 30 -8.5t24 -8.5q4 0 7 18.5t11 18.5q4 0 7.5 -3.5t6.5 -9.5t5 -11t4 -11.5t3 -8.5q23 -57 76 -98q8 24 8 53q0 28 -13 78q-10 37 -10 39q0 6 7 6q6 0 15.5 -8t14.5 -8
q9 0 23 24t22 24q12 0 12 -31q0 -6 -0.5 -13t-0.5 -10.5v-6.5t1 -4.5t4 -1.5q2 0 9 1.5t11 1.5q16 0 16 -7q0 -5 -4.5 -11t-8 -9.5t-12 -10t-9.5 -7.5q-49 -42 -71 -104q64 8 124 47q5 3 13 8.5t13.5 9t7.5 3.5q9 0 9 -8q0 -6 -4 -16t-4 -14q0 -7 30.5 -14t30.5 -17
q0 -12 -30.5 -20t-30.5 -10t6 -12.5t6 -16.5q0 -11 -9 -11q-6 0 -41 22q-55 33 -121 37q24 -56 78 -101q36 -28 36 -35t-20 -9t-20 -6q0 -7 1 -18.5t1 -16.5q0 -24 -13 -24q-10 0 -25 22.5t-18 22.5q-1 0 -10 -9t-18 -9q-10 0 -10 10q0 3 3.5 17t7.5 37t4 48q0 16 -10 63
q-53 -49 -79 -124q-7 -25 -17 -25q-6 0 -11 17.5t-8 17.5q-5 0 -26.5 -8.5t-25.5 -8.5q-13 0 -13 14q0 5 16 25t16 23t-14 10.5t-14 15.5t18 8q78 0 149 47q-60 36 -123 36z" />
    <glyph glyph-name="plus" unicode="+" horiz-adv-x="600" 
d="M258 295v211h84v-211h211v-84h-211v-211h-84v211h-211v84h211z" />
    <glyph glyph-name="comma" unicode="," horiz-adv-x="278" 
d="M-22 -172l-3 17q43 11 90.5 57.5t47.5 87.5q0 7 -5 7q-2 0 -12 -2q-6 -3 -18 -3q-24 0 -41.5 18t-17.5 42q0 35 21.5 59.5t55.5 24.5q30 0 47.5 -23.5t17.5 -54.5q0 -70 -56.5 -138.5t-126.5 -91.5z" />
    <glyph glyph-name="hyphen" unicode="-" horiz-adv-x="500" 
d="M74 217l26 84h304l-26 -84h-304z" />
    <glyph glyph-name="period" unicode="." horiz-adv-x="278" 
d="M161 78q0 -31 -22.5 -58.5t-55.5 -27.5q-27 0 -43.5 17t-16.5 41q0 31 22.5 58.5t55.5 27.5q27 0 43.5 -17t16.5 -41z" />
    <glyph glyph-name="slash" unicode="/" horiz-adv-x="389" 
d="M461 720l-413 -736h-89l413 736h89z" />
    <glyph glyph-name="zero" unicode="0" 
d="M141 96q0 -33 15.5 -59.5t45.5 -26.5q22 0 36.5 8.5t33.5 32.5q49 63 111 270.5t62 293.5q0 79 -65 79q-46 0 -92 -79t-77 -183.5t-50.5 -199.5t-19.5 -136zM39 250q0 69 24.5 148.5t67.5 150t109.5 117t141.5 46.5q57 0 96 -39.5t54 -90.5t15 -105q0 -112 -54 -235.5
t-138 -191.5q-27 -22 -67.5 -40t-72.5 -18q-47 0 -82.5 24t-55 63t-29 82.5t-9.5 88.5z" />
    <glyph glyph-name="one" unicode="1" 
d="M74 0l5 18h68l163 582q-84 -46 -190 -83l3 19q171 63 339 176h17l-194 -694h71l-4 -18h-278z" />
    <glyph glyph-name="two" unicode="2" 
d="M456 183l-97 -183h-366q15 43 46 85t67 77t76 71.5t76.5 75.5t66.5 81.5t48 97t18 115.5q0 40 -25.5 65.5t-74.5 25.5q-47 0 -96.5 -33.5t-49.5 -60.5q0 -16 13.5 -25t30 -12.5t30 -18.5t13.5 -41q0 -25 -16.5 -44.5t-44.5 -19.5q-34 0 -51 24t-17 58q0 87 63.5 139
t149.5 52t143.5 -41t57.5 -124q0 -56 -23.5 -103.5t-59.5 -79t-84 -63t-93.5 -55.5t-92.5 -57.5t-75 -68.5h291q32 0 57 63h19z" />
    <glyph glyph-name="three" unicode="3" 
d="M167 385v15h85q107 0 134 87q1 3 8 23t11.5 35t9 38.5t4.5 42.5q0 68 -100 68q-36 0 -67.5 -17t-31.5 -39q0 -5 17.5 -8.5t35 -17.5t17.5 -44q0 -25 -16.5 -40.5t-42.5 -15.5q-32 0 -49.5 18t-17.5 48q0 60 55.5 97t117.5 37q82 0 139 -37t57 -109q0 -174 -240 -178v-2
q77 -19 120.5 -56t43.5 -109q0 -37 -14.5 -75t-43 -73.5t-80 -58t-117.5 -22.5q-79 0 -131.5 36t-52.5 104q0 36 20 67.5t57 31.5q30 0 49.5 -17t19.5 -48q0 -23 -14 -42t-37 -19q-15 0 -33.5 7.5t-20.5 7.5q-17 0 -17 -23q0 -37 42 -59t82 -22q49 0 72.5 23.5t45.5 75.5
q47 106 47 180q0 41 -20.5 61.5t-48.5 22.5z" />
    <glyph glyph-name="four" unicode="4" 
d="M85 278h191l95 307l-2 2zM525 712l-117 -434h99l-18 -72h-100l-51 -188h71l-4 -18h-278l5 18h68l54 188h-236l3 27l440 479h64z" />
    <glyph glyph-name="five" unicode="5" 
d="M135 322l-12 4q12 43 41 137.5t47.5 162t19.5 94.5q106 -43 159 -43q81 0 127 49q-11 -74 -74.5 -118.5t-141.5 -44.5q-39 0 -87 10l-55 -180l2 -2q64 62 145 62q76 0 124.5 -45t48.5 -116q0 -76 -48 -146.5t-122.5 -112t-150.5 -41.5q-59 0 -103 32t-44 88q0 32 21 56
t52 24q25 0 44 -15t19 -40t-11 -40t-24 -19.5t-24 -12t-11 -19.5q0 -14 15 -22.5t30 -11t28 -2.5q82 0 120 71q24 44 47.5 119.5t23.5 135.5q0 93 -73 93q-39 0 -78.5 -34t-54.5 -73z" />
    <glyph glyph-name="six" unicode="6" 
d="M386 354q0 62 -62 62q-38 0 -75.5 -29.5t-55.5 -94.5q-41 -153 -41 -191q0 -91 79 -91q41 0 69.5 38t56.5 147q29 114 29 159zM547 706l-3 -16q-28 4 -58 4q-51 0 -93.5 -27t-74 -76.5t-51 -94t-39.5 -104.5l2 -2q23 25 59 37.5t67 12.5q71 0 110.5 -47t39.5 -115
q0 -120 -74 -203t-191 -83q-94 0 -139.5 65.5t-45.5 170.5q0 124 58 235.5t161 180t223 68.5q27 0 49 -6z" />
    <glyph glyph-name="seven" unicode="7" 
d="M138 515l-14 5q63 133 83 192h12v-12q95 -33 210 -33q81 0 161 33l11 -8q-65 -69 -154 -191.5t-147 -217.5q-57 -100 -57 -136q0 -9 11.5 -16.5t26 -13.5t26 -21t11.5 -37q0 -32 -21.5 -49.5t-53.5 -17.5q-29 0 -46 21t-17 51q0 13 8 35.5t16.5 40t21.5 42.5t16 31
q18 36 38 71t49.5 78t43.5 63t54 75t48 65q-115 -18 -155 -18q-23 0 -48 3t-40 6t-37.5 8.5t-27.5 6.5z" />
    <glyph glyph-name="eight" unicode="8" 
d="M471 212q0 -97 -72 -158.5t-175 -61.5q-80 0 -132.5 42t-52.5 123q0 122 192 206q-7 14 -20 36t-19 33.5t-11.5 31.5t-5.5 43q0 77 61 141t144 64q72 0 116 -34.5t44 -96.5q0 -65 -42 -106t-116 -76q8 -12 28.5 -42t30.5 -47t20 -44.5t10 -53.5zM369 130q0 31 -21 69
t-61 88.5t-47 61.5q-36 -16 -64.5 -32.5t-57.5 -40t-45 -54t-16 -65.5q0 -64 42.5 -105.5t124.5 -41.5q60 0 102.5 29.5t42.5 90.5zM271 594q0 -55 100 -182q73 35 112 71.5t39 96.5q0 54 -40 84t-95 30q-53 0 -84.5 -24.5t-31.5 -75.5z" />
    <glyph glyph-name="nine" unicode="9" 
d="M436 611q0 35 -18 59t-56 24q-42 0 -73 -44.5t-61 -151.5q-2 -6 -11 -35.5t-11.5 -40.5t-6 -32.5t-3.5 -39.5q0 -24 21.5 -39t43.5 -15q40 0 83 43.5t68 132.5q24 93 24 139zM5 0l4 12q45 4 74 9t63 17t57.5 31t48 51.5t45.5 78.5l55 123l1 2l-2 2q-58 -54 -126 -54
q-67 0 -105 44t-38 110q0 119 74 202.5t188 83.5q65 0 107.5 -36t58.5 -85.5t16 -108.5q0 -63 -19 -128.5t-61 -129t-100.5 -113.5t-145.5 -80.5t-189 -30.5h-6z" />
    <glyph glyph-name="colon" unicode=":" horiz-adv-x="278" 
d="M236 331q0 -31 -22.5 -58.5t-55.5 -27.5q-27 0 -43.5 17t-16.5 41q0 31 22.5 58.5t55.5 27.5q27 0 43.5 -17t16.5 -41zM161 78q0 -31 -22.5 -58.5t-55.5 -27.5q-27 0 -43.5 17t-16.5 41q0 31 22.5 58.5t55.5 27.5q27 0 43.5 -17t16.5 -41z" />
    <glyph glyph-name="semicolon" unicode=";" horiz-adv-x="278" 
d="M-22 -172l-3 17q43 11 90.5 57.5t47.5 87.5q0 7 -5 7q-2 0 -12 -2q-6 -3 -18 -3q-24 0 -41.5 18t-17.5 42q0 35 21.5 59.5t55.5 24.5q30 0 47.5 -23.5t17.5 -54.5q0 -70 -56.5 -138.5t-126.5 -91.5zM236 331q0 -31 -22.5 -58.5t-55.5 -27.5q-27 0 -43.5 17t-16.5 41
q0 31 22.5 58.5t55.5 27.5q27 0 43.5 -17t16.5 -41z" />
    <glyph glyph-name="less" unicode="&#x3c;" horiz-adv-x="600" 
d="M553 514v-88l-393 -173l393 -173v-88l-506 223v76z" />
    <glyph glyph-name="equal" unicode="=" horiz-adv-x="600" 
d="M553 397v-84h-506v84h506zM553 193v-84h-506v84h506z" />
    <glyph glyph-name="greater" unicode="&#x3e;" horiz-adv-x="600" 
d="M47 -8v88l393 173l-393 173v88l506 -223v-76z" />
    <glyph glyph-name="question" unicode="?" horiz-adv-x="444" 
d="M158 189l-13 4q33 162 50 200q8 17 16 28q15 19 51 40t67.5 36t57 41t25.5 57q0 45 -37.5 68t-85.5 23q-28 0 -63 -13t-41 -34q-1 -5 1 -9q8 -3 27 -5q20 -2 33.5 -15t13.5 -33q0 -26 -15 -43t-41 -17q-29 0 -46.5 19.5t-17.5 49.5q0 51 46.5 84.5t98.5 33.5
q71 0 117 -41.5t46 -111.5q0 -86 -46 -136.5t-161 -107.5q-42 -21 -54.5 -36t-21.5 -53zM207 78q0 -31 -22.5 -58.5t-55.5 -27.5q-27 0 -43.5 17t-16.5 41q0 31 22.5 58.5t55.5 27.5q27 0 43.5 -17t16.5 -41z" />
    <glyph glyph-name="at" unicode="@" horiz-adv-x="800" 
d="M359 295q-1 -41 16 -64t41 -23q51 0 84.5 72.5t33.5 136.5q0 67 -42 67t-87.5 -55t-45.5 -134zM556 486l9 36h76l-62 -247q-6 -24 -6 -36q0 -19 9.5 -31.5t26.5 -12.5q50 0 87 69t37 146q0 98 -75.5 177t-205.5 79q-125 0 -208.5 -85t-83.5 -250q0 -121 82.5 -204
t202.5 -83t208 50l9 -36q-96 -74 -244 -74q-166 0 -266 103.5t-100 246.5q0 171 111 278.5t267 107.5q151 0 251 -88t100 -221q0 -92 -56.5 -175t-136.5 -83q-40 0 -65 28.5t-25 46.5h-2q-10 -19 -44.5 -45t-75.5 -29q-36 -1 -68.5 27.5t-32.5 101.5q0 32 13.5 74.5
t37.5 83.5t63 69t84 28q54 0 81 -52h2z" />
    <glyph glyph-name="A" unicode="A" horiz-adv-x="667" 
d="M-60 0l5 18h22q42 0 80 57l440 659h21v-716h71l-5 -18h-293l5 18h78v196h-198l-84 -130q-21 -34 -21 -39q0 -27 45 -27h37l-5 -18h-198zM364 232v284h-2l-184 -284h186z" />
    <glyph glyph-name="B" unicode="B" horiz-adv-x="667" 
d="M367 686l-88 -316h84q51 0 87.5 30t53 74t23 79t6.5 61q0 42 -21 57t-67 15h-78zM-46 0l5 18h73l186 668h-79l5 18h326q37 0 69 -6.5t61.5 -21t47 -42.5t17.5 -68q0 -86 -64 -139t-154 -64v-2q60 0 106.5 -38.5t46.5 -102.5q0 -29 -8 -57t-30.5 -58.5t-56.5 -53t-92 -37
t-132 -14.5h-327zM274 352l-93 -334h81q65 0 95 13t59 55q15 22 30.5 76.5t15.5 97.5q0 44 -25 68t-72 24h-91z" />
    <glyph glyph-name="C" unicode="C" horiz-adv-x="667" 
d="M691 691l18 -4q-41 -151 -57 -256l-18 3q6 24 6 47q0 94 -44.5 157.5t-132.5 63.5q-119 0 -212 -254q-66 -179 -66 -295q0 -67 40.5 -109t108.5 -42q82 0 146 49t102 125l15 -11q-39 -78 -107 -129.5t-149 -51.5q-131 0 -206.5 90t-75.5 223q0 103 58.5 201.5t153.5 160
t194 61.5q67 0 123 -34q55 -34 74 -34q18 0 29 39z" />
    <glyph glyph-name="D" unicode="D" horiz-adv-x="778" 
d="M-46 0l5 18h73l186 668h-79l5 18h334q117 0 194 -71t77 -208q0 -174 -116 -299.5t-287 -125.5h-392zM367 686l-186 -668h127q103 0 166 71q52 59 97.5 209.5t45.5 218.5q0 90 -42 129.5t-104 39.5h-104z" />
    <glyph glyph-name="E" unicode="E" horiz-adv-x="667" 
d="M-46 0l5 18h73l186 668h-79l5 18h542l-36 -192h-17q5 35 5 42q0 132 -122 132h-150l-82 -296h89q37 0 59 14.5t34 47.5l16 46h17q-48 -168 -67 -253h-16q10 42 10 74q0 30 -17.5 41.5t-53.5 11.5h-76l-98 -354h149q100 0 162.5 60t92.5 145h17l-61 -223h-587z" />
    <glyph glyph-name="F" unicode="F" horiz-adv-x="611" 
d="M255 0h-301l5 18h73l186 668h-79l5 18h542l-36 -192h-17q5 35 5 42q0 132 -122 132h-150l-79 -296h86q37 0 59 14.5t34 47.5l16 46h17q-48 -168 -67 -253h-16q10 42 10 74q0 30 -17.5 41.5t-53.5 11.5h-75l-98 -354h78z" />
    <glyph glyph-name="G" unicode="G" horiz-adv-x="722" 
d="M438 252l4 18h279l-5 -18h-57l-25 -86q-23 -79 -114 -130.5t-179 -51.5q-131 0 -206.5 90t-75.5 223q0 103 58.5 201.5t153.5 160t194 61.5q67 0 123 -34q55 -34 74 -34q18 0 29 39l18 -4q-41 -151 -57 -256l-18 3q6 24 6 47q0 94 -44.5 157.5t-132.5 63.5
q-119 0 -212 -254q-66 -179 -66 -295q0 -67 40.5 -109t108.5 -42q97 0 124 85l51 165h-71z" />
    <glyph glyph-name="H" unicode="H" horiz-adv-x="778" 
d="M-46 0l5 18h73l186 668h-79l5 18h301l-5 -18h-73l-88 -316h266l88 316h-82l5 18h303l-5 -18h-75l-186 -668h80l-5 -18h-301l5 18h74l93 334h-265l-93 -334h79l-5 -18h-301z" />
    <glyph glyph-name="I" unicode="I" horiz-adv-x="389" 
d="M-40 0l5 18h73l186 668h-79l5 18h301l-5 -18h-73l-186 -668h79l-5 -18h-301z" />
    <glyph glyph-name="J" unicode="J" horiz-adv-x="500" 
d="M267 686l5 18h301l-5 -18h-73l-156 -557q-29 -104 -111.5 -159.5t-168.5 -55.5q-47 0 -84.5 33t-37.5 80q0 41 22 67t61 26q30 0 51.5 -19t21.5 -49q0 -34 -17.5 -55t-47.5 -21q-6 0 -14 3t-14 3q-14 0 -14 -12t24 -25t47 -13q12 0 23.5 3t20 7t17 13t14 14.5t12.5 19
t10 19t8 21t6 19.5t6 20.5t5 17.5l167 600h-79z" />
    <glyph glyph-name="K" unicode="K" horiz-adv-x="722" 
d="M-46 0l5 18h73l186 668h-79l5 18h301l-5 -18h-73l-86 -309h2l234 192q88 72 88 96q0 21 -39 21h-26l5 18h234l-5 -18h-29q-50 0 -122 -58l-246 -196l195 -414h71l-4 -18h-297l5 18h70l-145 316l-91 -316h79l-5 -18h-301z" />
    <glyph glyph-name="L" unicode="L" horiz-adv-x="667" 
d="M-46 0l5 18h73l186 668h-79l5 18h301l-5 -18h-73l-187 -668h113q113 0 196.5 67t118.5 190l15 -3l-77 -272h-592z" />
    <glyph glyph-name="M" unicode="M" horiz-adv-x="889" 
d="M-54 0l4 18h22q25 0 46 18t29 46l174 604h-74l4 18h227l39 -506h2l330 506h219l-4 -18h-70l-190 -668h80l-4 -18h-305l4 18h76l183 636l-2 2l-424 -656h-26l-49 668h-2l-160 -559q-7 -22 -7 -46q0 -15 12.5 -30t34.5 -15h34l-4 -18h-199z" />
    <glyph glyph-name="N" unicode="N" horiz-adv-x="722" 
d="M-60 0l5 18h41q23 0 45.5 30t31.5 60l163 578h-72l5 18h219l181 -563h2l127 455q8 32 8 52q0 38 -53 38h-33l5 18h224l-5 -18h-34q-38 0 -58.5 -23t-33.5 -67l-170 -596h-83l-216 662h-2l-148 -532q-16 -56 -16 -63q0 -49 59 -49h30l-5 -18h-217z" />
    <glyph glyph-name="O" unicode="O" horiz-adv-x="722" 
d="M175 129q0 -59 31 -93t94 -34q77 0 123 57t74 153q53 181 67.5 247t14.5 116q0 59 -31 93t-94 34q-72 0 -124.5 -70t-100.5 -236q-54 -188 -54 -267zM49 249q0 89 37 177t94 151.5t128 103t137 39.5q117 0 188.5 -85.5t71.5 -202.5q0 -110 -49 -211.5t-142.5 -169
t-209.5 -67.5q-114 0 -184.5 77.5t-70.5 187.5z" />
    <glyph glyph-name="P" unicode="P" horiz-adv-x="667" 
d="M275 316l-84 -298h73l-5 -18h-294l5 18h73l186 668h-79l5 18h299q229 0 229 -154q0 -110 -80 -172t-215 -62h-113zM378 686l-99 -352h87q43 0 66.5 11t44.5 38q23 27 45.5 95t22.5 121q0 87 -97 87h-70z" />
    <glyph glyph-name="Q" unicode="Q" horiz-adv-x="722" 
d="M175 129q0 -59 31 -93t94 -34q77 0 123 57t74 153q53 181 67.5 247t14.5 116q0 59 -31 93t-94 34q-72 0 -124.5 -70t-100.5 -236q-54 -188 -54 -267zM480 -200l-4 -18h-76q-28 0 -58 5t-65.5 16.5t-58 37t-22.5 60.5q0 21 26 99q-80 23 -126.5 92t-46.5 157q0 89 37 177
t94 151.5t128 103t137 39.5q117 0 188.5 -85.5t71.5 -202.5q0 -158 -99.5 -291.5t-252.5 -153.5q-31 -85 -31 -123q0 -28 17 -43t36 -18t49 -3h56z" />
    <glyph glyph-name="R" unicode="R" horiz-adv-x="722" 
d="M367 686l-86 -306h149q43 0 74 31.5t44.5 77t19.5 80.5t6 58q0 59 -67 59h-140zM-46 0l5 18h73l186 668h-79l5 18h359q107 0 155 -34t48 -105q0 -96 -66.5 -145.5t-166.5 -52.5v-2q72 -15 101.5 -45.5t29.5 -92.5q0 -22 -21.5 -97t-21.5 -87q0 -31 23 -31q33 0 70 47
l13 -4q-37 -61 -104 -61q-51 0 -92.5 23t-41.5 71q0 41 24.5 114t24.5 110q0 31 -24.5 40.5t-69.5 9.5h-108l-95 -344h79l-5 -18h-301z" />
    <glyph glyph-name="S" unicode="S" horiz-adv-x="611" 
d="M58 270l16 -5q-10 -26 -10 -61q0 -93 57.5 -147.5t150.5 -54.5q82 0 131 46.5t49 127.5q0 38 -31 66t-75 47.5t-88.5 41t-75.5 59t-31 89.5q0 40 14.5 81t41.5 77.5t73 59.5t103 23q45 0 89.5 -15t74.5 -30.5t40 -15.5q12 0 27 26l12 -4q-38 -111 -62 -206l-16 3
q4 15 4 44q0 77 -46.5 128.5t-123.5 51.5q-75 0 -117 -36.5t-42 -85.5q0 -35 33 -63.5t79.5 -51t93.5 -47t80 -63t33 -86.5q0 -113 -77 -199t-191 -86q-40 0 -80 12t-65 26.5t-49 26.5t-37 12q-31 0 -44 -36l-14 5q45 131 73 240z" />
    <glyph glyph-name="T" unicode="T" horiz-adv-x="722" 
d="M123 0l6 18h81l186 668h-52q-60 0 -111 -37t-81 -85.5t-52 -108.5h-20l72 249h657l-72 -249h-21q15 53 15 95q0 63 -36 99.5t-104 36.5h-46l-186 -668h87l-6 -18h-317z" />
    <glyph glyph-name="U" unicode="U" horiz-adv-x="722" 
d="M135 686l5 18h304l-5 -18h-80l-142 -494q-12 -43 -12 -77q0 -60 38.5 -86.5t94.5 -26.5q90 0 149.5 46t83.5 128l121 425q15 51 15 59q0 12 -16.5 19t-42.5 7h-27l5 18h210l-5 -18h-48q-47 0 -64 -67l-128 -449q-29 -103 -99 -144.5t-172 -41.5q-35 0 -74 7.5t-81.5 25
t-70 52.5t-27.5 83q0 20 23 105l119 429h-74z" />
    <glyph glyph-name="V" unicode="V" horiz-adv-x="611" 
d="M133 -21l67 707h-71l5 18h292l-5 -18h-75l-44 -471h2l264 360q34 47 34 77q0 34 -41 34h-28l5 18h187l-5 -18q-31 -1 -50.5 -16t-46.5 -52l-470 -639h-20z" />
    <glyph glyph-name="W" unicode="W" horiz-adv-x="944" 
d="M133 -21l67 707h-71l5 18h292l-5 -18h-75l-44 -462h2l238 330l13 132h-71l5 18h292l-5 -18h-75l-44 -461l2 -2l249 352q34 47 34 77q0 34 -41 34h-28l5 18h187l-5 -18q-33 -1 -45 -7t-27 -27l-480 -673h-20l52 542l-2 2v-2l-385 -542h-20z" />
    <glyph glyph-name="X" unicode="X" horiz-adv-x="611" 
d="M-50 0l5 18h21q40 0 65.5 15.5t62.5 61.5l154 187l-83 404h-63l5 18h278l-5 -18h-72l55 -265l149 188q28 34 28 57q0 20 -50 20h-23l4 18h230l-5 -18h-18q-42 0 -74 -18t-80 -76l-157 -193l81 -381h72l-5 -18h-285l5 18h70l-53 240l-129 -159q-29 -39 -29 -50
q0 -14 13.5 -22.5t33.5 -8.5h23l-5 -18h-219z" />
    <glyph glyph-name="Y" unicode="Y" horiz-adv-x="611" 
d="M73 0l5 18h69l84 298l-38 370h-75l5 18h299l-5 -18h-79l35 -362l186 258q35 47 35 79q0 25 -40 25h-27l5 18h183l-5 -18h-16q-25 0 -41.5 -13.5t-43.5 -49.5l-235 -325l-79 -280h80l-5 -18h-297z" />
    <glyph glyph-name="Z" unicode="Z" horiz-adv-x="667" 
d="M-11 0l523 686h-117q-48 0 -85 -12t-64.5 -37.5t-43.5 -47t-38 -59.5l-22 -38h-12l48 212h528l-524 -686h177q71 0 137 56.5t106 144.5h14l-57 -219h-570z" />
    <glyph glyph-name="bracketleft" unicode="[" horiz-adv-x="333" 
d="M-41 -239l277 968h192l-11 -36h-136l-254 -896h135l-12 -36h-191z" />
    <glyph glyph-name="backslash" unicode="\" horiz-adv-x="278" 
d="M23 720h82l182 -736h-82z" />
    <glyph glyph-name="bracketright" unicode="]" horiz-adv-x="333" 
d="M351 729l-277 -968h-192l11 36h136l254 896h-135l12 36h191z" />
    <glyph glyph-name="asciicircum" unicode="^" horiz-adv-x="600" 
d="M185 339h-89l178 365h80l178 -365h-89l-129 275z" />
    <glyph glyph-name="underscore" unicode="_" horiz-adv-x="500" 
d="M500 -125h-500v50h500v-50z" />
    <glyph glyph-name="grave" unicode="`" horiz-adv-x="278" 
d="M245 506h-14l-157 129q-27 21 -27 40q0 29 39 29q24 0 46 -31z" />
    <glyph glyph-name="a" unicode="a" 
d="M506 434l-99 -335q-15 -53 -15 -54q0 -21 18 -21q21 0 47 28.5t38 52.5l14 -8q-62 -109 -148 -109q-36 0 -56.5 29t-20.5 73h-2q-18 -38 -56 -70t-83 -32q-57 0 -89 44t-32 114q0 44 19 96t51 97.5t81.5 76t104.5 30.5q74 0 83 -74h2l18 62h125zM191 288l-31 -91
q-12 -35 -24 -87.5t-12 -65.5q0 -38 34 -38q29 0 65.5 31.5t61.5 93.5q64 160 64 221q0 40 -16.5 58t-39.5 18q-28 0 -50 -26t-52 -114z" />
    <glyph glyph-name="b" unicode="b" 
d="M128 686l4 18h54q104 0 143 31l-112 -377l2 -1q62 89 146 89q69 0 105 -42.5t36 -109.5q0 -125 -87 -215.5t-208 -90.5q-73 0 -120 50t-47 103q0 54 32 161l112 384h-60zM392 380q0 23 -14 35.5t-31 12.5q-35 0 -82.5 -42t-66.5 -93q-16 -44 -43 -153q-9 -36 -9 -53
q0 -42 18.5 -61.5t42.5 -19.5q43 0 73 31.5t63 122.5q49 133 49 220z" />
    <glyph glyph-name="c" unicode="c" horiz-adv-x="444" 
d="M378 136l15 -6q-72 -142 -194 -142q-83 0 -130 43.5t-47 115.5q0 125 91.5 212t195.5 87q52 0 89.5 -21.5t37.5 -72.5q0 -28 -20.5 -50.5t-53.5 -22.5q-27 0 -45.5 19.5t-18.5 49.5q0 25 13 39.5t26.5 20t13.5 9.5q0 11 -45 11q-39 0 -73 -49t-52.5 -114t-28.5 -117.5
t-10 -70.5q0 -71 71 -71q49 0 95.5 39t69.5 91z" />
    <glyph glyph-name="d" unicode="d" 
d="M394 686l4 18h54q104 0 143 31l-188 -636q-15 -53 -15 -54q0 -21 18 -21q21 0 47 28.5t38 52.5l14 -8q-62 -109 -148 -109q-36 0 -56.5 29t-20.5 73h-2q-18 -38 -56 -70t-83 -32q-57 0 -89 44t-32 114q0 44 19 96t51 97.5t81.5 76t104.5 30.5q74 0 83 -74h2l91 314h-60z
M191 288l-31 -91q-12 -35 -24 -87.5t-12 -65.5q0 -38 34 -38q29 0 65.5 31.5t61.5 93.5q64 160 64 221q0 40 -16.5 58t-39.5 18q-28 0 -50 -26t-52 -114z" />
    <glyph glyph-name="e" unicode="e" horiz-adv-x="444" 
d="M359 99l13 -7q-67 -104 -187 -104q-77 0 -120 47.5t-43 117.5q0 65 40.5 134.5t104 115t124.5 43.5q48 0 86 -28t38 -75q0 -72 -58 -108t-135 -36q-35 0 -59 8q-21 -81 -21 -134q0 -31 17 -49t46 -18q45 0 86 26t68 67zM319 393q0 21 -10 31t-23 10q-33 0 -59 -49.5
t-59 -163.5q17 -10 42 -10q31 0 48.5 16.5t29.5 48.5q31 79 31 117z" />
    <glyph glyph-name="f" unicode="f" horiz-adv-x="333" 
d="M121 416h-72l4 18h73q38 113 119.5 207t162.5 94q32 0 55.5 -18.5t23.5 -50.5q0 -28 -18 -46t-46 -18q-27 0 -44.5 16t-17.5 41q0 45 44 61v3q-40 0 -68 -41.5t-57 -151.5q-2 -6 -11.5 -40.5t-14.5 -55.5h87l-4 -18h-87l-56 -256q-6 -26 -20.5 -71t-41 -108t-57.5 -116.5
t-72 -91.5t-82 -38q-30 0 -56.5 17t-26.5 46q0 32 18 48.5t46 16.5q30 0 46 -16.5t16 -38.5t-13 -36.5t-30 -16.5v-2q46 0 67 35.5t36 121.5q9 48 23.5 129t23.5 129.5t19.5 105t18 91t12.5 51.5z" />
    <glyph glyph-name="g" unicode="g" horiz-adv-x="500" 
d="M147 -255q44 0 93 18.5t86 57t37 84.5q0 12 -4 21t-13.5 14.5t-18 8.5t-25.5 4t-28 1.5t-34 0.5q-27 0 -80 -2.5t-64 -2.5q-34 0 -58.5 -34.5t-24.5 -69.5q0 -52 39 -76.5t95 -24.5zM162 184q0 -17 9.5 -27.5t25.5 -10.5q28 0 42 21t37 95q30 96 30 128q0 19 -10.5 31.5
t-26.5 12.5q-7 0 -14 -2.5t-12.5 -6.5t-11 -11t-9.5 -12.5t-8 -15.5t-6.5 -15.5t-6 -16t-4.5 -14.5t-3 -14l-3 -10q-3 -10 -9.5 -34t-10 -37t-6.5 -31t-3 -30zM66 271q0 78 54 126.5t131 48.5q65 0 111 -42q23 29 42 38.5t45 9.5q25 0 42 -17t17 -39q1 -27 -12.5 -42.5
t-37.5 -15.5q-21 0 -33.5 14t-12.5 34q0 14 7 27t7 14q0 7 -7 7q-9 0 -25 -16.5t-21 -27.5q29 -44 29 -92q0 -71 -57.5 -117.5t-131.5 -46.5q-29 0 -47 6q-19 7 -26 7q-32 0 -64.5 -16.5t-32.5 -40.5q0 -21 17.5 -26.5t73.5 -5.5q13 0 75.5 2.5t80.5 2.5q115 0 115 -102
q0 -101 -84 -167.5t-189 -66.5q-67 0 -123 30t-56 91q0 41 32.5 69.5t77.5 37.5v2q-62 22 -62 89q0 47 40 78.5t89 34.5v2q-30 16 -47 46t-17 64z" />
    <glyph glyph-name="h" unicode="h" 
d="M3 0l198 686h-58l4 18h54q104 0 143 31l-121 -406l2 -1q22 27 35 41t36.5 35.5t48.5 31.5t52 10q44 0 68.5 -22.5t24.5 -61.5q0 -26 -38 -136l-45 -127q-15 -45 -15 -54q0 -21 18 -21q21 0 47 28.5t38 52.5l14 -8q-62 -109 -148 -109q-38 0 -60.5 24.5t-22.5 59.5
q0 12 14 57l79 234q11 33 11 44q0 15 -21 15q-34 0 -88.5 -61t-66.5 -101l-75 -260h-128z" />
    <glyph glyph-name="i" unicode="i" horiz-adv-x="333" 
d="M80 416l4 18h103q61 0 92 22l-109 -357q-15 -52 -15 -54q0 -21 18 -21q21 0 47 28.5t38 52.5l14 -8q-62 -109 -139 -109q-26 0 -45 8t-27.5 18.5t-13.5 24.5t-5.5 20t-0.5 12q0 19 12 59l89 286h-62zM190 603q0 29 20 49t49 20t49 -20t20 -49t-20 -49t-49 -20t-49 20
t-20 49z" />
    <glyph glyph-name="j" unicode="j" horiz-adv-x="333" 
d="M80 416l1 6l3 12h103q61 0 92 22l-134 -439q-11 -36 -34.5 -79t-57.5 -87.5t-81.5 -74.5t-96.5 -30q-33 0 -57.5 17t-24.5 49q0 26 17 45.5t43 19.5q60 0 60 -55q0 -17 -11 -33.5t-28 -19.5q-13 -2 -13 -5q0 -6 15 -6q42 0 63.5 35t48.5 128l154 495h-62zM190 603
q0 29 20 49t49 20t49 -20t20 -49t-20 -49t-49 -20t-49 20t-20 49z" />
    <glyph glyph-name="k" unicode="k" 
d="M3 0l204 686h-60l4 18h54q104 0 143 31l-140 -462h49q28 0 45 19.5t26.5 47.5t20.5 55.5t34.5 47t60.5 19.5q30 0 47.5 -19t17.5 -48q0 -27 -19 -45t-43 -18q-21 0 -39.5 11t-18.5 32q0 6 2.5 13.5t2.5 9.5q0 10 -10 10q-13 0 -25.5 -34t-29.5 -70.5t-41 -41.5v-2
q51 -25 69 -47t19 -68q1 -51 6 -77t11 -32t18 -6q23 0 41.5 26t27.5 53l14 -4q-15 -52 -48 -84.5t-79 -32.5q-50 0 -77 29t-28 120q-1 56 -4 81t-9.5 31t-21.5 6t-24 -2l-76 -253h-124z" />
    <glyph glyph-name="l" unicode="l" horiz-adv-x="333" 
d="M149 686l4 18h54q104 0 143 31l-185 -636q-15 -52 -15 -54q0 -21 18 -21q21 0 47 28.5t38 52.5l14 -8q-62 -109 -139 -109q-26 0 -45 8t-27.5 18.5t-13.5 24.5t-5.5 20t-0.5 12q0 19 12 59l163 556h-62z" />
    <glyph glyph-name="m" unicode="m" horiz-adv-x="833" 
d="M3 0l120 416h-58l4 18h103q61 0 92 22l-41 -127l2 -1q1 1 12.5 15t13.5 16.5t13.5 15.5t15.5 16.5t15.5 14t18 14t18 10t21 9t22 5t24.5 2.5q91 0 91 -82q0 -23 -3 -35l2 -1q2 2 14.5 17t16 18.5t15.5 16.5t18.5 18t18.5 15t21.5 14t22.5 9.5t26 7.5t27 2
q47 0 72.5 -22.5t25.5 -61.5q0 -26 -38 -136l-45 -127q-15 -45 -15 -54q0 -21 18 -21q21 0 47 28.5t38 52.5l14 -8q-62 -109 -148 -109q-38 0 -60.5 24.5t-22.5 59.5q0 12 14 57l73 223q11 33 11 52q0 18 -20 18q-34 0 -89.5 -55t-71.5 -107l-77 -260h-126l103 353
q10 33 10 51t-21 18q-34 0 -88.5 -61t-66.5 -101l-75 -260h-128z" />
    <glyph glyph-name="n" unicode="n" 
d="M3 0l120 416h-58l4 18h103q61 0 92 22l-41 -127l2 -1q22 27 35 41t36.5 35.5t48.5 31.5t52 10q44 0 68.5 -22.5t24.5 -61.5q0 -26 -38 -136l-45 -127q-15 -45 -15 -54q0 -21 18 -21q21 0 47 28.5t38 52.5l14 -8q-62 -109 -148 -109q-38 0 -60.5 24.5t-22.5 59.5
q0 12 14 57l79 234q11 33 11 44q0 15 -21 15q-34 0 -88.5 -61t-66.5 -101l-75 -260h-128z" />
    <glyph glyph-name="o" unicode="o" horiz-adv-x="500" 
d="M450 263q0 -101 -76.5 -188t-189.5 -87q-66 0 -114 46t-48 125q0 83 41.5 151t100 102t118.5 34q78 0 123 -52t45 -131zM348 378q0 30 -13.5 43t-44.5 13q-20 0 -35 -7t-26 -22.5t-16 -26t-13 -30.5q-28 -72 -52 -159t-24 -123q0 -66 59 -66q17 0 32 6.5t23 13.5
t17.5 23.5t11.5 22.5t10 25q17 43 44 152t27 135z" />
    <glyph glyph-name="p" unicode="p" 
d="M-111 -265l4 18h51l194 663h-62l6 18h69q81 0 113 21q-8 -41 -15 -97h2q23 36 61 62t80 26q58 0 86 -43t28 -105q0 -65 -26.5 -134.5t-82.5 -122.5t-126 -53q-80 0 -100 92h-2l-97 -327h66l-5 -18h-244zM398 382q0 40 -35 40q-36 0 -78 -45t-56 -92l-31 -107
q-15 -56 -15 -73q0 -30 18.5 -61.5t45.5 -31.5q28 0 49 34t51 118q18 50 34.5 116.5t16.5 101.5z" />
    <glyph glyph-name="q" unicode="q" 
d="M191 288l-31 -91q-12 -36 -24.5 -88t-11.5 -65q1 -38 34 -38h6q41 0 78 41.5t59 99t35 113.5t13 92q0 40 -16.5 58t-39.5 18q-28 0 -50 -26t-52 -114zM126 -265l5 18h51l99 321h-2q-21 -28 -34.5 -43t-40.5 -29t-61 -14q-57 0 -89 44t-32 114q0 44 19 96t51 97.5t81.5 76
t104.5 30.5q74 0 83 -74h2l18 62h129l-200 -681h66l-5 -18h-245z" />
    <glyph glyph-name="r" unicode="r" horiz-adv-x="444" 
d="M3 0l124 416h-62l4 18h103q61 0 92 22l-37 -111h2q69 101 137 101q35 0 56.5 -17t21.5 -53q0 -31 -20 -52.5t-55 -21.5q-28 0 -45.5 17t-17.5 45q0 12 5.5 24t10.5 18l6 7q0 3 -4 3q-16 0 -59 -51t-49 -71l-85 -294h-128z" />
    <glyph glyph-name="s" unicode="s" horiz-adv-x="444" 
d="M357 135q0 -48 -32 -82.5t-76 -49.5t-93 -15q-54 0 -103.5 31t-49.5 79q0 31 16 50.5t45 19.5q26 0 42.5 -18t16.5 -43q0 -29 -15.5 -43t-37.5 -16q-17 0 -17 -7q0 -5 14 -14.5t40 -18t51 -8.5q103 0 103 83q0 28 -27 50t-59 36t-59 43.5t-27 70.5q0 70 54.5 116.5
t128.5 46.5q47 0 90 -22t43 -66q0 -30 -15 -49t-44 -19q-24 0 -39.5 17t-15.5 42q0 47 43 55q11 2 11 7q0 3 -10.5 8.5t-28.5 10t-35 4.5q-36 0 -67 -19.5t-31 -56.5q0 -26 19 -45t46 -32t54 -29t46 -45.5t19 -71.5z" />
    <glyph glyph-name="t" unicode="t" horiz-adv-x="333" 
d="M39 416l5 18h85l35 120q5 1 22 5.5t22.5 6t19.5 5.5t21 7.5t18 8t20.5 10t18.5 12.5l-52 -175h91l-5 -18h-91l-88 -317q-15 -52 -15 -54q0 -21 18 -21q21 0 47.5 29.5t41.5 58.5l6 14l15 -7l-14 -25q-22 -41 -59 -73.5t-77 -32.5q-26 0 -45 8t-27.5 18.5t-13.5 24.5
t-5.5 20t-0.5 12q0 19 12 59l80 286h-85z" />
    <glyph glyph-name="u" unicode="u" 
d="M61 416l4 18h103q61 0 92 22l-108 -356q-15 -47 -15 -63q0 -19 22 -19q16 0 44 25t51 56q37 51 49 89l79 246h129l-104 -335q-15 -53 -15 -54q0 -21 18 -21q21 0 47 28.5t38 52.5l14 -8q-62 -109 -148 -109q-39 0 -61 24t-22 56q0 21 8 49h-2q-19 -29 -32.5 -46
t-36.5 -39t-51 -33t-60 -11q-37 0 -59 21.5t-22 57.5q0 15 13 63l87 286h-62z" />
    <glyph glyph-name="v" unicode="v" horiz-adv-x="500" 
d="M45 130l86 286h-63l4 18h103q57 0 98 22l-107 -362q-13 -44 -13 -53q0 -7 5.5 -12t14.5 -5q40 0 87 33.5t82 79t59 91t24 70.5q0 8 -1.5 13.5t-7 9t-7.5 4t-12 4.5q-24 8 -39 24.5t-15 37.5q0 29 16.5 47t44.5 18q29 0 46 -19.5t17 -55.5q0 -81 -52 -173t-134.5 -156
t-160.5 -64q-42 0 -64.5 22t-22.5 56q0 20 12 64z" />
    <glyph glyph-name="w" unicode="w" horiz-adv-x="778" 
d="M47 130l87 286h-62l4 18h103q61 0 92 22l-108 -356q-15 -47 -15 -53q0 -9 7 -16t18 -7q44 0 90.5 54t64.5 110l76 246h125l-100 -340q-15 -48 -15 -55q0 -21 27 -21q43 0 105.5 48t109 115.5t46.5 116.5q0 8 -1.5 13.5t-7 9t-7.5 4t-12 4.5q-24 8 -39 24.5t-15 37.5
q0 29 16.5 47t44.5 18q29 0 46 -19.5t17 -55.5q0 -81 -52 -173t-134.5 -156t-160.5 -64q-91 0 -91 78q0 23 6 51h-2q-54 -77 -93.5 -103t-101.5 -26q-38 0 -59.5 22t-21.5 56q0 28 13 64z" />
    <glyph glyph-name="x" unicode="x" 
d="M41 316l-12 7l24 25q48 50 91.5 74t97.5 24q114 0 114 -98q0 -6 -2 -26h2q67 124 152 124q35 0 56 -22t21 -59q0 -25 -16 -43.5t-49 -18.5q-26 0 -40.5 16t-14.5 38q0 21 13.5 35t27.5 21t14 11q0 10 -23 10q-41 0 -79.5 -46t-62.5 -108.5t-38.5 -121.5t-14.5 -92
q0 -60 39 -60q30 0 60.5 21t51.5 46l32 39l12 -8l-14 -17q-38 -47 -77.5 -73t-95.5 -26q-67 0 -93 35t-29 92h-2q-16 -46 -51 -86.5t-82 -40.5q-30 0 -48 20t-18 48q0 26 15 45t40 19q23 0 38 -13.5t15 -37.5q0 -20 -8.5 -32t-17 -17t-8.5 -7q0 -7 8 -7q43 0 83.5 69
t62 146.5t21.5 121.5q0 73 -54 73q-18 0 -38 -11t-31.5 -20.5t-33.5 -31.5z" />
    <glyph glyph-name="y" unicode="y" 
d="M169 -49l-37 344q-3 27 -5.5 41t-10 26t-18.5 12q-10 0 -19 -5t-17 -15.5t-12.5 -17.5t-12 -21.5t-8.5 -17.5l-14 5q72 144 159 144q66 0 72 -70l25 -254h2l143 243q48 81 103 81q29 0 46.5 -17t17.5 -47q0 -28 -18 -48t-46 -20q-23 0 -39.5 14.5t-16.5 37.5t12 38
q-15 0 -52 -60l-275 -465q-41 -71 -81 -107.5t-104 -36.5q-32 0 -54.5 18.5t-22.5 49.5q0 32 18 54t49 22q23 0 41 -14.5t18 -43.5q0 -21 -10 -34t-20 -17.5t-10 -6.5q0 -10 12 -10q35 0 69.5 26.5t58.5 69.5z" />
    <glyph glyph-name="z" unicode="z" horiz-adv-x="500" 
d="M28 72l301 267h-2q-71 -30 -176 -30q-54 0 -85 14l-22 -41l-14 6q12 24 25 49.5t28 56t23 46.5q102 -35 211 -35q16 0 42 3t38 3q0 35 19 35q17 0 17 -25q0 -19 -52 -64l-282 -244l2 -2q45 15 84 15q43 0 108.5 -33t82.5 -33q13 0 23 14t10 24q0 6 -5 6q-2 0 -6.5 -1
t-7.5 -1q-21 0 -34.5 13.5t-13.5 35.5q0 21 13 34t34 13q49 0 49 -56q0 -53 -47.5 -100.5t-119.5 -47.5q-40 0 -114 27t-107 27q-13 0 -13 -9q0 -4 2.5 -8.5t2.5 -7.5q0 -9 -7.5 -16t-19.5 -7q-7 0 -14 6t-7 14q0 22 34 52z" />
    <glyph glyph-name="braceleft" unicode="{" horiz-adv-x="333" 
d="M422 729l-4 -18q-67 -13 -98 -42.5t-50 -90.5l-60 -189q-20 -65 -46 -97t-80 -46l-1 -2q53 -29 53 -80q0 -30 -44 -152q-45 -125 -45 -169q0 -27 12.5 -41t56.5 -23l-4 -18q-29 0 -47 2t-38 9.5t-30 25t-10 45.5q0 47 44 171q45 129 45 156q0 30 -9 47t-39 28
q51 15 75 43t42 85l63 199q30 95 78 126t136 31z" />
    <glyph glyph-name="bar" unicode="|" horiz-adv-x="222" 
d="M89 -250v1000h84v-1000h-84z" />
    <glyph glyph-name="braceright" unicode="}" horiz-adv-x="333" 
d="M-139 -239l4 18q66 9 97.5 39.5t50.5 93.5l60 189q20 65 46 97t80 46l1 2q-31 10 -42 28.5t-11 51.5q0 32 44 152q45 125 45 169q0 28 -13 43.5t-56 20.5l4 18q67 0 96 -17t29 -65q0 -52 -44 -171q-45 -121 -45 -156q0 -30 9 -47t39 -28q-51 -15 -75 -43t-42 -85
l-63 -199q-30 -95 -78 -126t-136 -31z" />
    <glyph glyph-name="asciitilde" unicode="~" horiz-adv-x="600" 
d="M105 175l-36 67q21 29 33 43.5t37.5 30t54.5 15.5q36 0 102 -36q64 -36 115 -36q50 0 84 72l36 -69q-22 -29 -33.5 -42.5t-37 -29t-54.5 -15.5q-36 0 -102 36q-64 36 -115 36q-50 0 -84 -72z" />
    <glyph glyph-name="uni00A0" unicode="&#xa0;" horiz-adv-x="278" 
 />
    <glyph glyph-name="exclamdown" unicode="&#xa1;" horiz-adv-x="333" 
d="M161 243l12 -3q-46 -199 -48 -304q0 -62 24 -98q-78 -42 -127 -126q-20 95 -58 133q26 19 50.5 54.5t47 85t37.5 88t35 95.5t27 75zM130 354q0 31 22.5 58.5t55.5 27.5q27 0 43.5 -17t16.5 -41q0 -31 -22.5 -58.5t-55.5 -27.5q-27 0 -43.5 17t-16.5 41z" />
    <glyph glyph-name="cent" unicode="&#xa2;" 
d="M185 -87l23 82q-66 10 -101.5 50t-35.5 102q0 63 25 118.5t64.5 92.5t85 59.5t88.5 27.5l24 86h20l-24 -85q55 0 93 -21.5t38 -72.5q0 -28 -20.5 -50.5t-53.5 -22.5q-27 0 -45.5 19t-18.5 49q0 41 31 56q2 1 9 3.5t10 5t3 5.5q0 11 -41 11h-10l-115 -413q9 -5 28 -5
q49 0 95.5 37.5t69.5 88.5l15 -6q-70 -138 -194 -138q-8 0 -20 2l-23 -81h-20zM216 22l111 400q-54 -26 -95 -158.5t-41 -186.5q0 -41 25 -55z" />
    <glyph glyph-name="sterling" unicode="&#xa3;" 
d="M60 340l5 18h82q0 8 -0.5 23.5t-0.5 23.5q0 132 70 219.5t199 87.5q75 0 113.5 -40t38.5 -88q0 -35 -18.5 -59.5t-49.5 -24.5q-33 0 -50 17.5t-17 41.5q0 29 17 48t46 19q27 0 42 -10q-4 32 -32.5 52t-62.5 20q-24 0 -44.5 -11t-35.5 -26.5t-28.5 -42t-22 -48.5
t-17.5 -56t-13 -53.5t-10 -51.5t-8 -41h166l-4 -18h-167q-11 -89 -67 -194q104 -28 162 -28q47 0 76 22t48 67h13q-36 -122 -81 -168.5t-103 -46.5q-30 0 -63 16t-46 26t-49 41q-46 -75 -101 -75q-23 0 -40.5 15t-17.5 38q0 53 35.5 79.5t88.5 26.5q7 0 21 -3t21 -3
q2 57 -7 187h-88zM131 90q-36 21 -59 21q-28 0 -46.5 -12.5t-18.5 -39.5q0 -41 39 -41q54 0 85 72z" />
    <glyph glyph-name="currency" unicode="&#xa4;" 
d="M88 95l-52 53l58 58q-48 66 -48 146t47 145l-57 57l52 52l57 -57q65 51 149 51q80 0 146 -48l54 54l52 -52l-54 -54q50 -65 50 -148q0 -85 -51 -149l54 -54l-52 -52l-54 55q-63 -48 -145 -48q-83 0 -147 50zM130 352q0 -68 48 -116t116 -48t116 48t48 116t-48 116
t-116 48t-116 -48t-48 -116z" />
    <glyph glyph-name="yen" unicode="&#xa5;" 
d="M33 0l5 18h79l46 160h-136l6 24h136l24 84h-142l6 24h145l-41 376h-83l5 18h299l-5 -18h-85l29 -357l195 256q35 47 35 76q0 25 -39 25h-27l5 18h185l-5 -18h-16q-25 0 -42 -13.5t-44 -48.5l-239 -314h146l-6 -24h-144l-24 -84h150l-6 -24h-150l-46 -160h86l-5 -18h-297z
" />
    <glyph glyph-name="brokenbar" unicode="&#xa6;" horiz-adv-x="222" 
d="M89 -175v350h84v-350h-84zM89 325v350h84v-350h-84z" />
    <glyph glyph-name="section" unicode="&#xa7;" 
d="M401 -11q0 -111 -70 -182.5t-183 -71.5q-66 0 -120 35.5t-54 104.5q0 36 19 63t53 27q28 0 48.5 -17.5t20.5 -45.5t-17 -45.5t-48 -17.5q-7 0 -17 3t-13 3q-10 0 -10 -12q0 -30 41.5 -55t97.5 -25q74 0 124 39t50 105q0 41 -29 75.5t-70 59t-82 49.5t-70 60.5t-29 78.5
q0 64 41.5 119t103.5 94q-10 12 -16 37.5t-6 44.5q0 85 63.5 145t146.5 60q68 0 113 -29.5t45 -93.5q0 -27 -19.5 -48t-49.5 -21q-28 0 -47 17t-19 45q0 24 15 41t40 17q4 0 11 -1t10 -1q11 0 11 7q0 27 -36.5 38t-72.5 11q-54 0 -96.5 -30t-42.5 -80q0 -29 28.5 -57t69 -53
t80.5 -51t68.5 -60.5t28.5 -72.5q0 -52 -21 -97t-45.5 -70.5t-67.5 -62.5q22 -36 22 -79zM115 317q0 -31 32.5 -64t73.5 -57t86 -56t63 -58l12 11q13 11 15.5 13.5t13 12.5t14 14.5t11 14.5t10 17t5 16.5t2.5 18.5q0 29 -40 61.5t-109 77t-108 81.5q-23 -18 -36 -28.5
t-29 -33t-16 -41.5z" />
    <glyph glyph-name="dieresis" unicode="&#xa8;" horiz-adv-x="278" 
d="M83 603q0 27 19.5 46.5t46.5 19.5t46.5 -19.5t19.5 -46.5t-19.5 -46.5t-46.5 -19.5t-46.5 19.5t-19.5 46.5zM257 603q0 27 19.5 46.5t46.5 19.5t46.5 -19.5t19.5 -46.5t-19.5 -46.5t-46.5 -19.5t-46.5 19.5t-19.5 46.5z" />
    <glyph glyph-name="copyright" unicode="&#xa9;" horiz-adv-x="800" 
d="M571 268h23l-16 -75q0 -2 -1 -4t-1.5 -3.5t-2.5 -3t-3.5 -2.5t-4.5 -2.5t-4.5 -2t-5.5 -2t-6 -2.5q-72 -19 -109 -19q-101 0 -161 53t-60 155q0 35 12.5 68.5t38 64.5t71.5 50t107 19q53 0 88 -13t39 -20q2 -3 2 -8v-73h-24q-19 90 -106 90q-61 0 -93.5 -47t-32.5 -126
q0 -189 128 -189q87 0 122 92zM136 352q0 -124 82 -207t202 -83t202 83t82 207t-82 207t-202 83t-202 -83t-82 -207zM52 352q0 152 108 260t260 108t260 -108t108 -260t-108 -260t-260 -108t-260 108t-108 260z" />
    <glyph glyph-name="ordfeminine" unicode="&#xaa;" horiz-adv-x="361" 
d="M404 705l-64 -200q-13 -39 -13 -47q0 -9 12 -9q5 0 11 3t11 6.5t11 10t9.5 10.5t8.5 10.5t6 7.5l8 -5l-6 -7q-6 -7 -7 -8.5t-7 -8t-8 -8.5l-7.5 -7.5t-9 -7.5t-9 -5.5t-9.5 -5t-9.5 -2.5t-10.5 -1q-38 0 -52 17t-14 46h-2q-35 -63 -89 -63q-46 0 -64 26t-18 73
q0 64 48.5 123t113.5 59q50 0 61 -41h2l11 34h86zM260 529q33 86 33 129q0 17 -10 29.5t-26 12.5q-19 0 -36 -30t-43 -106q-24 -68 -24 -97q0 -24 23 -24q22 0 44.5 23.5t38.5 62.5z" />
    <glyph glyph-name="guillemotleft" unicode="&#xab;" horiz-adv-x="500" 
d="M172 88l-88 171l150 171h60l-152 -171l84 -171h-54zM304 88l-88 171l150 171h60l-152 -171l84 -171h-54z" />
    <glyph glyph-name="logicalnot" unicode="&#xac;" horiz-adv-x="600" 
d="M469 110v203h-422v84h506v-287h-84z" />
    <glyph glyph-name="uni00AD" unicode="&#xad;" horiz-adv-x="500" 
d="M74 217l26 84h304l-26 -84h-304z" />
    <glyph glyph-name="registered" unicode="&#xae;" horiz-adv-x="800" 
d="M250 163v18q33 2 40 9.5t7 36.5v260q0 29 -7.5 36t-39.5 9v18h162q82 0 119 -23.5t37 -75.5q0 -35 -24 -64.5t-61 -41.5l53 -85q48 -79 77 -85v-12h-84q-15 0 -35 33l-78 136h-35v-105q0 -30 6.5 -37t38.5 -9v-18h-176zM381 526v-170h33q64 0 64 91q0 79 -63 79h-34z
M136 352q0 -124 82 -207t202 -83t202 83t82 207t-82 207t-202 83t-202 -83t-82 -207zM52 352q0 152 108 260t260 108t260 -108t108 -260t-108 -260t-260 -108t-260 108t-108 260z" />
    <glyph glyph-name="macron" unicode="&#xaf;" horiz-adv-x="278" 
d="M105 640h250l-14 -60h-250z" />
    <glyph glyph-name="degree" unicode="&#xb0;" horiz-adv-x="400" 
d="M160 569q0 -41 27 -68t68 -27t68 27t27 68t-27 68t-68 27t-68 -27t-27 -68zM112 569q0 60 41.5 101.5t101.5 41.5t101.5 -41.5t41.5 -101.5t-41.5 -101.5t-101.5 -41.5t-101.5 41.5t-41.5 101.5z" />
    <glyph glyph-name="plusminus" unicode="&#xb1;" horiz-adv-x="600" 
d="M258 357v149h84v-149h211v-84h-211v-151h-84v151h-211v84h211zM47 0v84h506v-84h-506z" />
    <glyph glyph-name="twosuperior" unicode="&#xb2;" horiz-adv-x="361" 
d="M346 396l-63 -110h-241q13 34 45 68.5t66.5 63.5t67.5 60.5t54 73.5t21 89q0 59 -61 59q-32 0 -63 -18t-31 -37q0 -10 8.5 -15t19.5 -7.5t19.5 -10.5t8.5 -22q0 -18 -10 -31.5t-30 -13.5q-46 0 -46 56q0 50 42.5 80.5t98.5 30.5t95 -24.5t39 -73.5t-33.5 -87.5t-76 -59.5
t-94.5 -50.5t-78 -58.5h189q20 0 37 38h16z" />
    <glyph glyph-name="threesuperior" unicode="&#xb3;" horiz-adv-x="361" 
d="M150 515v10h55q56 0 80.5 38.5t24.5 97.5q0 17 -10.5 26t-22.5 11t-31 2q-22 0 -43 -11.5t-21 -20.5q0 -3 11 -5t22.5 -10.5t11.5 -26.5q0 -16 -10.5 -25t-27.5 -9q-21 0 -33.5 11.5t-12.5 30.5q0 35 37 56.5t78 21.5q56 0 93 -23t37 -70q0 -98 -156 -101v-2
q51 -11 80 -33t29 -65q0 -63 -52 -100.5t-116 -37.5q-52 0 -87 21.5t-35 62.5q0 22 14.5 42t37.5 20q19 0 32 -11.5t13 -29.5q0 -15 -9 -26t-24 -11q-10 0 -21.5 4.5t-13.5 4.5q-11 0 -11 -14q0 -22 28 -33.5t62 -11.5q40 0 69 58t29 106q0 25 -13 36.5t-32 12.5z" />
    <glyph glyph-name="acute" unicode="&#xb4;" horiz-adv-x="278" 
d="M199 506h-14l113 167q22 31 46 31q39 0 39 -29q0 -19 -27 -40z" />
    <glyph glyph-name="mu" unicode="&#xb5;" 
d="M61 416l4 18h103q61 0 92 22l-108 -356q-15 -47 -15 -63q0 -19 22 -19q16 0 44 25t51 56q37 51 49 89l79 246h129l-104 -335q-15 -53 -15 -54q0 -21 18 -21q21 0 47 28.5t38 52.5l14 -8q-62 -109 -148 -109q-39 0 -61 24t-22 56q0 21 8 49h-2q-25 -37 -44 -60t-52.5 -45
t-70.5 -24l-23 -104q-15 -67 -33 -100t-34.5 -41t-45.5 -8q-21 0 -36 17t-15 38q0 38 38 130q38 95 48 129l107 367h-62z" />
    <glyph glyph-name="paragraph" unicode="&#xb6;" horiz-adv-x="620" 
d="M428 686l-259 -935h-157l6 18h80l143 524q-62 0 -97 44.5t-35 96.5q0 122 71 196t206 74h283l-5 -18h-80l-251 -917h76l-5 -18h-156l259 935h-79zM248 318l95 350q-71 -17 -110.5 -86t-39.5 -142q0 -50 16 -81.5t39 -40.5z" />
    <glyph glyph-name="periodcentered" unicode="&#xb7;" horiz-adv-x="278" 
d="M74 289q0 29 22 50.5t50 21.5t50 -21.5t22 -50.5t-22 -50.5t-50 -21.5t-50 21.5t-22 50.5z" />
    <glyph glyph-name="cedilla" unicode="&#xb8;" horiz-adv-x="278" 
d="M116 0h22l-77 -85l2 -2q27 10 53 10q32 0 56.5 -16t24.5 -46q0 -38 -34.5 -57.5t-76.5 -19.5q-46 0 -106 21l7 18q55 -15 65 -15q26 0 48.5 13.5t22.5 37.5q0 21 -15.5 30.5t-35.5 9.5q-10 0 -33 -7l-10 8z" />
    <glyph glyph-name="onesuperior" unicode="&#xb9;" horiz-adv-x="361" 
d="M88 286l3 12h45l106 343q-52 -26 -124 -50l3 16q105 36 219 105h15l-126 -414h47l-3 -12h-185z" />
    <glyph glyph-name="ordmasculine" unicode="&#xba;" horiz-adv-x="325" 
d="M377 602q0 -65 -51.5 -118t-120.5 -53q-56 0 -83.5 32t-27.5 85q0 59 53 111.5t117 52.5q53 0 83 -30.5t30 -79.5zM271 700q-18 0 -32 -14t-21 -29t-15 -39l-3 -9q-34 -89 -34 -128q0 -38 38 -38q21 0 38 19t24 48q1 5 11.5 43.5t19 73.5t8.5 47q0 26 -34 26z" />
    <glyph glyph-name="guillemotright" unicode="&#xbb;" horiz-adv-x="500" 
d="M322 430l88 -171l-150 -171h-60l152 171l-84 171h54zM190 430l88 -171l-150 -171h-60l152 171l-84 171h54z" />
    <glyph glyph-name="onequarter" unicode="&#xbc;" horiz-adv-x="834" 
d="M611 167l63 191l-2 2l-196 -193h135zM775 426l-76 -259h64l-11 -42h-65l-33 -113h46l-3 -12h-185l4 12h44l37 113h-155l5 26l273 275h55zM161 -16l463 736h45l-463 -736h-45zM59 286l3 12h45l106 343q-52 -26 -124 -50l3 16q105 36 219 105h15l-126 -414h47l-3 -12h-185z
" />
    <glyph glyph-name="onehalf" unicode="&#xbd;" horiz-adv-x="834" 
d="M141 -16l463 736h45l-463 -736h-45zM59 286l3 12h45l106 343q-52 -26 -124 -50l3 16q105 36 219 105h15l-126 -414h47l-3 -12h-185zM735 110l-63 -110h-241q13 34 45 68.5t66.5 63.5t67.5 60.5t54 73.5t21 89q0 59 -61 59q-32 0 -63 -18t-31 -37q0 -10 9 -15t19 -7.5
t19 -10.5t9 -22q0 -18 -10 -31.5t-30 -13.5q-46 0 -46 56q0 50 42.5 80.5t98.5 30.5t95 -24.5t39 -73.5t-33.5 -87.5t-76 -59.5t-94.5 -50.5t-78 -58.5h189q20 0 37 38h16z" />
    <glyph glyph-name="threequarters" unicode="&#xbe;" horiz-adv-x="834" 
d="M150 515v10h55q56 0 80.5 38.5t24.5 97.5q0 17 -10.5 26t-22.5 11t-31 2q-22 0 -43 -11.5t-21 -20.5q0 -3 11 -5t22.5 -10.5t11.5 -26.5q0 -16 -10.5 -25t-27.5 -9q-21 0 -33.5 11.5t-12.5 30.5q0 35 37 56.5t78 21.5q56 0 93 -23t37 -70q0 -98 -156 -101v-2
q51 -11 80 -33t29 -65q0 -63 -52 -100.5t-116 -37.5q-52 0 -87 21.5t-35 62.5q0 22 14.5 42t37.5 20q19 0 32 -11.5t13 -29.5q0 -15 -9 -26t-24 -11q-10 0 -21.5 4.5t-13.5 4.5q-11 0 -11 -14q0 -22 28 -33.5t62 -11.5q40 0 69 58t29 106q0 25 -13 36.5t-32 12.5zM775 426
l-76 -259h64l-11 -42h-65l-33 -113h46l-3 -12h-185l4 12h44l37 113h-155l5 26l273 275h55zM171 -16l463 736h45l-463 -736h-45zM611 167l63 191l-2 2l-196 -193h135z" />
    <glyph glyph-name="questiondown" unicode="&#xbf;" horiz-adv-x="444" 
d="M256 243l13 -4q-33 -162 -50 -200q-8 -17 -16 -28q-15 -19 -51 -40t-67.5 -36t-57 -41t-25.5 -57q0 -45 37.5 -68t85.5 -23q28 0 63 13t41 34q1 5 -1 9q-8 3 -27 5q-20 2 -33.5 15t-13.5 33q0 26 15 43t41 17q29 0 46.5 -19.5t17.5 -49.5q0 -51 -46.5 -84.5t-98.5 -33.5
q-71 0 -117 41.5t-46 111.5q0 86 46 136.5t161 107.5q42 21 54.5 36t21.5 53zM207 354q0 31 22.5 58.5t55.5 27.5q27 0 43.5 -17t16.5 -41q0 -31 -22.5 -58.5t-55.5 -27.5q-27 0 -43.5 17t-16.5 41z" />
    <glyph glyph-name="Agrave" unicode="&#xc0;" horiz-adv-x="667" 
d="M-60 0l5 18h22q42 0 80 57l440 659h21v-716h71l-5 -18h-293l5 18h78v196h-198l-84 -130q-21 -34 -21 -39q0 -27 45 -27h37l-5 -18h-198zM364 232v284h-2l-184 -284h186zM510 739h-14l-157 129q-27 21 -27 40q0 29 39 29q24 0 46 -31z" />
    <glyph glyph-name="Aacute" unicode="&#xc1;" horiz-adv-x="667" 
d="M-60 0l5 18h22q42 0 80 57l440 659h21v-716h71l-5 -18h-293l5 18h78v196h-198l-84 -130q-21 -34 -21 -39q0 -27 45 -27h37l-5 -18h-198zM364 232v284h-2l-184 -284h186zM474 739h-14l113 167q22 31 46 31q39 0 39 -29q0 -19 -27 -40z" />
    <glyph glyph-name="Acircumflex" unicode="&#xc2;" horiz-adv-x="667" 
d="M-60 0l5 18h22q42 0 80 57l440 659h21v-716h71l-5 -18h-293l5 18h78v196h-198l-84 -130q-21 -34 -21 -39q0 -27 45 -27h37l-5 -18h-198zM364 232v284h-2l-184 -284h186zM333 739l148 198h68l60 -198h-11l-95 126l-158 -126h-12z" />
    <glyph glyph-name="Atilde" unicode="&#xc3;" horiz-adv-x="667" 
d="M-60 0l5 18h22q42 0 80 57l440 659h21v-716h71l-5 -18h-293l5 18h78v196h-198l-84 -130q-21 -34 -21 -39q0 -27 45 -27h37l-5 -18h-198zM364 232v284h-2l-184 -284h186zM637 900h15q-12 -45 -38 -82.5t-63 -37.5q-22 0 -75.5 21t-76.5 21q-26 0 -37.5 -8.5t-23.5 -33.5
h-15q12 45 38 82.5t63 37.5q22 0 75.5 -21t76.5 -21q26 0 37.5 8.5t23.5 33.5z" />
    <glyph glyph-name="Adieresis" unicode="&#xc4;" horiz-adv-x="667" 
d="M-60 0l5 18h22q42 0 80 57l440 659h21v-716h71l-5 -18h-293l5 18h78v196h-198l-84 -130q-21 -34 -21 -39q0 -27 45 -27h37l-5 -18h-198zM364 232v284h-2l-184 -284h186zM348 836q0 27 19.5 46.5t46.5 19.5t46.5 -19.5t19.5 -46.5t-19.5 -46.5t-46.5 -19.5t-46.5 19.5
t-19.5 46.5zM522 836q0 27 19.5 46.5t46.5 19.5t46.5 -19.5t19.5 -46.5t-19.5 -46.5t-46.5 -19.5t-46.5 19.5t-19.5 46.5z" />
    <glyph glyph-name="Aring" unicode="&#xc5;" horiz-adv-x="667" 
d="M-60 0l5 18h22q42 0 80 57l440 659h21v-716h71l-5 -18h-293l5 18h78v196h-198l-84 -130q-21 -34 -21 -39q0 -27 45 -27h37l-5 -18h-198zM364 232v284h-2l-184 -284h186zM610 856q0 -44 -32 -76t-76 -32t-76 32t-32 76t32 76t76 32t76 -32t32 -76zM502 790q28 0 47 19
t19 47t-19 47t-47 19t-47 -19t-19 -47t19 -47t47 -19z" />
    <glyph glyph-name="AE" unicode="&#xc6;" horiz-adv-x="944" 
d="M-74 0l5 18h16q48 2 81 46l477 622h-89l5 18h542l-36 -192h-17q5 35 5 42q0 132 -122 132h-129l-83 -296h69q37 0 59 14.5t34 47.5l16 46h17q-48 -168 -67 -253h-16q10 42 10 74q0 30 -17.5 41.5t-53.5 11.5h-56l-99 -354h130q100 0 162.5 60t92.5 145h17l-61 -223h-587
l5 18h91l55 196h-216l-83 -113q-29 -41 -29 -54q0 -29 54 -29h21l-5 -18h-198zM387 232l126 436h-2l-332 -436h208z" />
    <glyph glyph-name="Ccedilla" unicode="&#xc7;" horiz-adv-x="667" 
d="M691 691l18 -4q-41 -151 -57 -256l-18 3q6 24 6 47q0 94 -44.5 157.5t-132.5 63.5q-119 0 -212 -254q-66 -179 -66 -295q0 -67 40.5 -109t108.5 -42q82 0 146 49t102 125l15 -11q-39 -78 -107 -129.5t-149 -51.5q-14 0 -21 2l-64 -71l2 -2q27 10 53 10q32 0 56.5 -16
t24.5 -46q0 -38 -34.5 -57.5t-76.5 -19.5q-47 0 -106 21l7 18q55 -15 65 -15q26 0 48.5 13.5t22.5 37.5q0 21 -15.5 30.5t-35.5 9.5q-10 0 -33 -7l-10 8l76 87q-113 14 -177 101.5t-64 208.5q0 103 58.5 201.5t153.5 160t194 61.5q67 0 123 -34q55 -34 74 -34q18 0 29 39z
" />
    <glyph glyph-name="Egrave" unicode="&#xc8;" horiz-adv-x="667" 
d="M-46 0l5 18h73l186 668h-79l5 18h542l-36 -192h-17q5 35 5 42q0 132 -122 132h-150l-82 -296h89q37 0 59 14.5t34 47.5l16 46h17q-48 -168 -67 -253h-16q10 42 10 74q0 30 -17.5 41.5t-53.5 11.5h-76l-98 -354h149q100 0 162.5 60t92.5 145h17l-61 -223h-587zM490 739
h-14l-157 129q-27 21 -27 40q0 29 39 29q24 0 46 -31z" />
    <glyph glyph-name="Eacute" unicode="&#xc9;" horiz-adv-x="667" 
d="M-46 0l5 18h73l186 668h-79l5 18h542l-36 -192h-17q5 35 5 42q0 132 -122 132h-150l-82 -296h89q37 0 59 14.5t34 47.5l16 46h17q-48 -168 -67 -253h-16q10 42 10 74q0 30 -17.5 41.5t-53.5 11.5h-76l-98 -354h149q100 0 162.5 60t92.5 145h17l-61 -223h-587zM444 739
h-14l113 167q22 31 46 31q39 0 39 -29q0 -19 -27 -40z" />
    <glyph glyph-name="Ecircumflex" unicode="&#xca;" horiz-adv-x="667" 
d="M-46 0l5 18h73l186 668h-79l5 18h542l-36 -192h-17q5 35 5 42q0 132 -122 132h-150l-82 -296h89q37 0 59 14.5t34 47.5l16 46h17q-48 -168 -67 -253h-16q10 42 10 74q0 30 -17.5 41.5t-53.5 11.5h-76l-98 -354h149q100 0 162.5 60t92.5 145h17l-61 -223h-587zM313 739
l148 198h68l60 -198h-11l-95 126l-158 -126h-12z" />
    <glyph glyph-name="Edieresis" unicode="&#xcb;" horiz-adv-x="667" 
d="M-46 0l5 18h73l186 668h-79l5 18h542l-36 -192h-17q5 35 5 42q0 132 -122 132h-150l-82 -296h89q37 0 59 14.5t34 47.5l16 46h17q-48 -168 -67 -253h-16q10 42 10 74q0 30 -17.5 41.5t-53.5 11.5h-76l-98 -354h149q100 0 162.5 60t92.5 145h17l-61 -223h-587zM328 836
q0 27 19.5 46.5t46.5 19.5t46.5 -19.5t19.5 -46.5t-19.5 -46.5t-46.5 -19.5t-46.5 19.5t-19.5 46.5zM502 836q0 27 19.5 46.5t46.5 19.5t46.5 -19.5t19.5 -46.5t-19.5 -46.5t-46.5 -19.5t-46.5 19.5t-19.5 46.5z" />
    <glyph glyph-name="Igrave" unicode="&#xcc;" horiz-adv-x="389" 
d="M-40 0l5 18h73l186 668h-79l5 18h301l-5 -18h-73l-186 -668h79l-5 -18h-301zM351 739h-14l-157 129q-27 21 -27 40q0 29 39 29q24 0 46 -31z" />
    <glyph glyph-name="Iacute" unicode="&#xcd;" horiz-adv-x="389" 
d="M-40 0l5 18h73l186 668h-79l5 18h301l-5 -18h-73l-186 -668h79l-5 -18h-301zM305 739h-14l113 167q22 31 46 31q39 0 39 -29q0 -19 -27 -40z" />
    <glyph glyph-name="Icircumflex" unicode="&#xce;" horiz-adv-x="389" 
d="M-40 0l5 18h73l186 668h-79l5 18h301l-5 -18h-73l-186 -668h79l-5 -18h-301zM174 739l148 198h68l60 -198h-11l-95 126l-158 -126h-12z" />
    <glyph glyph-name="Idieresis" unicode="&#xcf;" horiz-adv-x="389" 
d="M-40 0l5 18h73l186 668h-79l5 18h301l-5 -18h-73l-186 -668h79l-5 -18h-301zM189 836q0 27 19.5 46.5t46.5 19.5t46.5 -19.5t19.5 -46.5t-19.5 -46.5t-46.5 -19.5t-46.5 19.5t-19.5 46.5zM363 836q0 27 19.5 46.5t46.5 19.5t46.5 -19.5t19.5 -46.5t-19.5 -46.5
t-46.5 -19.5t-46.5 19.5t-19.5 46.5z" />
    <glyph glyph-name="Eth" unicode="&#xd0;" horiz-adv-x="778" 
d="M-46 0l5 18h73l99 361h-72l8 30h75l76 277h-79l5 18h326q123 0 201 -71t78 -208q0 -113 -52 -210t-145 -156t-206 -59h-392zM280 379l-99 -361h159q60 0 114.5 54t88.5 134t54 166t20 156q0 85 -42 121.5t-104 36.5h-104l-76 -277h161l-8 -30h-164z" />
    <glyph glyph-name="Ntilde" unicode="&#xd1;" horiz-adv-x="722" 
d="M-60 0l5 18h41q23 0 45.5 30t31.5 60l163 578h-72l5 18h219l181 -563h2l127 455q8 32 8 52q0 38 -53 38h-33l5 18h224l-5 -18h-34q-38 0 -58.5 -23t-33.5 -67l-170 -596h-83l-216 662h-2l-148 -532q-16 -56 -16 -63q0 -49 59 -49h30l-5 -18h-217zM644 900h15
q-12 -45 -38 -82.5t-63 -37.5q-22 0 -75.5 21t-76.5 21q-26 0 -37.5 -8.5t-23.5 -33.5h-15q12 45 38 82.5t63 37.5q22 0 75.5 -21t76.5 -21q26 0 37.5 8.5t23.5 33.5z" />
    <glyph glyph-name="Ograve" unicode="&#xd2;" horiz-adv-x="722" 
d="M175 129q0 -59 31 -93t94 -34q77 0 123 57t74 153q53 181 67.5 247t14.5 116q0 59 -31 93t-94 34q-72 0 -124.5 -70t-100.5 -236q-54 -188 -54 -267zM49 249q0 89 37 177t94 151.5t128 103t137 39.5q117 0 188.5 -85.5t71.5 -202.5q0 -110 -49 -211.5t-142.5 -169
t-209.5 -67.5q-114 0 -184.5 77.5t-70.5 187.5zM537 739h-14l-157 129q-27 21 -27 40q0 29 39 29q24 0 46 -31z" />
    <glyph glyph-name="Oacute" unicode="&#xd3;" horiz-adv-x="722" 
d="M175 129q0 -59 31 -93t94 -34q77 0 123 57t74 153q53 181 67.5 247t14.5 116q0 59 -31 93t-94 34q-72 0 -124.5 -70t-100.5 -236q-54 -188 -54 -267zM49 249q0 89 37 177t94 151.5t128 103t137 39.5q117 0 188.5 -85.5t71.5 -202.5q0 -110 -49 -211.5t-142.5 -169
t-209.5 -67.5q-114 0 -184.5 77.5t-70.5 187.5zM471 739h-14l113 167q22 31 46 31q39 0 39 -29q0 -19 -27 -40z" />
    <glyph glyph-name="Ocircumflex" unicode="&#xd4;" horiz-adv-x="722" 
d="M175 129q0 -59 31 -93t94 -34q77 0 123 57t74 153q53 181 67.5 247t14.5 116q0 59 -31 93t-94 34q-72 0 -124.5 -70t-100.5 -236q-54 -188 -54 -267zM49 249q0 89 37 177t94 151.5t128 103t137 39.5q117 0 188.5 -85.5t71.5 -202.5q0 -110 -49 -211.5t-142.5 -169
t-209.5 -67.5q-114 0 -184.5 77.5t-70.5 187.5zM350 739l148 198h68l60 -198h-11l-95 126l-158 -126h-12z" />
    <glyph glyph-name="Otilde" unicode="&#xd5;" horiz-adv-x="722" 
d="M175 129q0 -59 31 -93t94 -34q77 0 123 57t74 153q53 181 67.5 247t14.5 116q0 59 -31 93t-94 34q-72 0 -124.5 -70t-100.5 -236q-54 -188 -54 -267zM49 249q0 89 37 177t94 151.5t128 103t137 39.5q117 0 188.5 -85.5t71.5 -202.5q0 -110 -49 -211.5t-142.5 -169
t-209.5 -67.5q-114 0 -184.5 77.5t-70.5 187.5zM644 900h15q-12 -45 -38 -82.5t-63 -37.5q-22 0 -75.5 21t-76.5 21q-26 0 -37.5 -8.5t-23.5 -33.5h-15q12 45 38 82.5t63 37.5q22 0 75.5 -21t76.5 -21q26 0 37.5 8.5t23.5 33.5z" />
    <glyph glyph-name="Odieresis" unicode="&#xd6;" horiz-adv-x="722" 
d="M175 129q0 -59 31 -93t94 -34q77 0 123 57t74 153q53 181 67.5 247t14.5 116q0 59 -31 93t-94 34q-72 0 -124.5 -70t-100.5 -236q-54 -188 -54 -267zM49 249q0 89 37 177t94 151.5t128 103t137 39.5q117 0 188.5 -85.5t71.5 -202.5q0 -110 -49 -211.5t-142.5 -169
t-209.5 -67.5q-114 0 -184.5 77.5t-70.5 187.5zM345 836q0 27 19.5 46.5t46.5 19.5t46.5 -19.5t19.5 -46.5t-19.5 -46.5t-46.5 -19.5t-46.5 19.5t-19.5 46.5zM519 836q0 27 19.5 46.5t46.5 19.5t46.5 -19.5t19.5 -46.5t-19.5 -46.5t-46.5 -19.5t-46.5 19.5t-19.5 46.5z" />
    <glyph glyph-name="multiply" unicode="&#xd7;" horiz-adv-x="600" 
d="M238 253l-170 170l62 62l170 -170l170 170l62 -62l-170 -170l170 -170l-62 -62l-170 170l-170 -170l-62 62z" />
    <glyph glyph-name="Oslash" unicode="&#xd8;" horiz-adv-x="722" 
d="M575 606l-388 -537q27 -67 113 -67q77 0 123 57t74 153q53 181 67.5 247t14.5 116q0 11 -4 31zM178 96l390 537q-24 69 -114 69q-72 0 -124.5 -70t-100.5 -236q-54 -188 -54 -267q0 -17 3 -33zM109 -38l-19 12l50 69q-91 77 -91 206q0 89 37 177t94 151.5t128 103
t137 39.5q87 0 149 -51l45 62l18 -12l-45 -63q45 -41 69 -100t24 -124q0 -110 -49 -211.5t-142.5 -169t-209.5 -67.5q-84 0 -146 46z" />
    <glyph glyph-name="Ugrave" unicode="&#xd9;" horiz-adv-x="722" 
d="M135 686l5 18h304l-5 -18h-80l-142 -494q-12 -43 -12 -77q0 -60 38.5 -86.5t94.5 -26.5q90 0 149.5 46t83.5 128l121 425q15 51 15 59q0 12 -16.5 19t-42.5 7h-27l5 18h210l-5 -18h-48q-47 0 -64 -67l-128 -449q-29 -103 -99 -144.5t-172 -41.5q-35 0 -74 7.5t-81.5 25
t-70 52.5t-27.5 83q0 20 23 105l119 429h-74zM527 739h-14l-157 129q-27 21 -27 40q0 29 39 29q24 0 46 -31z" />
    <glyph glyph-name="Uacute" unicode="&#xda;" horiz-adv-x="722" 
d="M135 686l5 18h304l-5 -18h-80l-142 -494q-12 -43 -12 -77q0 -60 38.5 -86.5t94.5 -26.5q90 0 149.5 46t83.5 128l121 425q15 51 15 59q0 12 -16.5 19t-42.5 7h-27l5 18h210l-5 -18h-48q-47 0 -64 -67l-128 -449q-29 -103 -99 -144.5t-172 -41.5q-35 0 -74 7.5t-81.5 25
t-70 52.5t-27.5 83q0 20 23 105l119 429h-74zM491 739h-14l113 167q22 31 46 31q39 0 39 -29q0 -19 -27 -40z" />
    <glyph glyph-name="Ucircumflex" unicode="&#xdb;" horiz-adv-x="722" 
d="M135 686l5 18h304l-5 -18h-80l-142 -494q-12 -43 -12 -77q0 -60 38.5 -86.5t94.5 -26.5q90 0 149.5 46t83.5 128l121 425q15 51 15 59q0 12 -16.5 19t-42.5 7h-27l5 18h210l-5 -18h-48q-47 0 -64 -67l-128 -449q-29 -103 -99 -144.5t-172 -41.5q-35 0 -74 7.5t-81.5 25
t-70 52.5t-27.5 83q0 20 23 105l119 429h-74zM350 739l148 198h68l60 -198h-11l-95 126l-158 -126h-12z" />
    <glyph glyph-name="Udieresis" unicode="&#xdc;" horiz-adv-x="722" 
d="M135 686l5 18h304l-5 -18h-80l-142 -494q-12 -43 -12 -77q0 -60 38.5 -86.5t94.5 -26.5q90 0 149.5 46t83.5 128l121 425q15 51 15 59q0 12 -16.5 19t-42.5 7h-27l5 18h210l-5 -18h-48q-47 0 -64 -67l-128 -449q-29 -103 -99 -144.5t-172 -41.5q-35 0 -74 7.5t-81.5 25
t-70 52.5t-27.5 83q0 20 23 105l119 429h-74zM365 836q0 27 19.5 46.5t46.5 19.5t46.5 -19.5t19.5 -46.5t-19.5 -46.5t-46.5 -19.5t-46.5 19.5t-19.5 46.5zM539 836q0 27 19.5 46.5t46.5 19.5t46.5 -19.5t19.5 -46.5t-19.5 -46.5t-46.5 -19.5t-46.5 19.5t-19.5 46.5z" />
    <glyph glyph-name="Yacute" unicode="&#xdd;" horiz-adv-x="611" 
d="M73 0l5 18h69l84 298l-38 370h-75l5 18h299l-5 -18h-79l35 -362l186 258q35 47 35 79q0 25 -40 25h-27l5 18h183l-5 -18h-16q-25 0 -41.5 -13.5t-43.5 -49.5l-235 -325l-79 -280h80l-5 -18h-297zM426 739h-14l113 167q22 31 46 31q39 0 39 -29q0 -19 -27 -40z" />
    <glyph glyph-name="Thorn" unicode="&#xde;" horiz-adv-x="667" 
d="M-35 0l5 18h73l186 668h-79l5 18h297l-5 -19h-69l-24 -89h69q229 0 229 -154q0 -115 -82.5 -174.5t-221.5 -59.5h-104l-53 -190h73l-5 -18h-294zM249 226h103q50 0 88.5 44.5t56 103.5t17.5 117q0 87 -96 87h-71z" />
    <glyph glyph-name="germandbls" unicode="&#xdf;" horiz-adv-x="611" 
d="M304 301q0 28 17.5 54t43.5 45.5t56.5 44.5t56.5 50t43.5 63.5t17.5 83.5q0 75 -83 75q-79 0 -120 -65.5t-82 -224.5q-55 -219 -70 -270q-15 -53 -39.5 -115t-62.5 -136t-90 -122.5t-105 -48.5q-26 0 -48.5 18t-22.5 49q0 30 16.5 47.5t42.5 17.5q61 0 61 -53
q0 -26 -12.5 -39.5t-30.5 -15.5v-4q6 -2 9 -2q19 0 40 15.5t32 33.5q13 21 26.5 66.5t21.5 81t17.5 86.5t10.5 54l51 241q37 174 128.5 289t219.5 115q58 0 110 -28.5t52 -82.5q0 -41 -35 -81t-76.5 -64.5t-76.5 -50.5t-35 -44q0 -7 3.5 -13.5t12.5 -14.5t12.5 -10.5
t16.5 -11.5q69 -50 90 -75t21 -67q0 -87 -54 -142.5t-139 -55.5q-55 0 -91.5 27.5t-36.5 71.5q0 28 17.5 47.5t47.5 19.5q28 0 44.5 -15t16.5 -42q0 -18 -12.5 -32.5t-27.5 -18.5q-22 -9 -24 -13q0 -14 26 -23.5t41 -9.5q45 0 82.5 29t37.5 79q0 25 -17.5 45.5t-42 35.5
t-49 29.5t-42 34t-17.5 42.5z" />
    <glyph glyph-name="agrave" unicode="&#xe0;" 
d="M506 434l-99 -335q-15 -53 -15 -54q0 -21 18 -21q21 0 47 28.5t38 52.5l14 -8q-62 -109 -148 -109q-36 0 -56.5 29t-20.5 73h-2q-18 -38 -56 -70t-83 -32q-57 0 -89 44t-32 114q0 44 19 96t51 97.5t81.5 76t104.5 30.5q74 0 83 -74h2l18 62h125zM191 288l-31 -91
q-12 -35 -24 -87.5t-12 -65.5q0 -38 34 -38q29 0 65.5 31.5t61.5 93.5q64 160 64 221q0 40 -16.5 58t-39.5 18q-28 0 -50 -26t-52 -114zM384 506h-14l-157 129q-27 21 -27 40q0 29 39 29q24 0 46 -31z" />
    <glyph glyph-name="aacute" unicode="&#xe1;" 
d="M506 434l-99 -335q-15 -53 -15 -54q0 -21 18 -21q21 0 47 28.5t38 52.5l14 -8q-62 -109 -148 -109q-36 0 -56.5 29t-20.5 73h-2q-18 -38 -56 -70t-83 -32q-57 0 -89 44t-32 114q0 44 19 96t51 97.5t81.5 76t104.5 30.5q74 0 83 -74h2l18 62h125zM191 288l-31 -91
q-12 -35 -24 -87.5t-12 -65.5q0 -38 34 -38q29 0 65.5 31.5t61.5 93.5q64 160 64 221q0 40 -16.5 58t-39.5 18q-28 0 -50 -26t-52 -114zM338 506h-14l113 167q22 31 46 31q39 0 39 -29q0 -19 -27 -40z" />
    <glyph glyph-name="acircumflex" unicode="&#xe2;" 
d="M506 434l-99 -335q-15 -53 -15 -54q0 -21 18 -21q21 0 47 28.5t38 52.5l14 -8q-62 -109 -148 -109q-36 0 -56.5 29t-20.5 73h-2q-18 -38 -56 -70t-83 -32q-57 0 -89 44t-32 114q0 44 19 96t51 97.5t81.5 76t104.5 30.5q74 0 83 -74h2l18 62h125zM191 288l-31 -91
q-12 -35 -24 -87.5t-12 -65.5q0 -38 34 -38q29 0 65.5 31.5t61.5 93.5q64 160 64 221q0 40 -16.5 58t-39.5 18q-28 0 -50 -26t-52 -114zM207 506l148 198h68l60 -198h-11l-95 126l-158 -126h-12z" />
    <glyph glyph-name="atilde" unicode="&#xe3;" 
d="M506 434l-99 -335q-15 -53 -15 -54q0 -21 18 -21q21 0 47 28.5t38 52.5l14 -8q-62 -109 -148 -109q-36 0 -56.5 29t-20.5 73h-2q-18 -38 -56 -70t-83 -32q-57 0 -89 44t-32 114q0 44 19 96t51 97.5t81.5 76t104.5 30.5q74 0 83 -74h2l18 62h125zM191 288l-31 -91
q-12 -35 -24 -87.5t-12 -65.5q0 -38 34 -38q29 0 65.5 31.5t61.5 93.5q64 160 64 221q0 40 -16.5 58t-39.5 18q-28 0 -50 -26t-52 -114zM511 667h15q-12 -45 -38 -82.5t-63 -37.5q-22 0 -75.5 21t-76.5 21q-26 0 -37.5 -8.5t-23.5 -33.5h-15q12 45 38 82.5t63 37.5
q22 0 75.5 -21t76.5 -21q26 0 37.5 8.5t23.5 33.5z" />
    <glyph glyph-name="adieresis" unicode="&#xe4;" 
d="M506 434l-99 -335q-15 -53 -15 -54q0 -21 18 -21q21 0 47 28.5t38 52.5l14 -8q-62 -109 -148 -109q-36 0 -56.5 29t-20.5 73h-2q-18 -38 -56 -70t-83 -32q-57 0 -89 44t-32 114q0 44 19 96t51 97.5t81.5 76t104.5 30.5q74 0 83 -74h2l18 62h125zM191 288l-31 -91
q-12 -35 -24 -87.5t-12 -65.5q0 -38 34 -38q29 0 65.5 31.5t61.5 93.5q64 160 64 221q0 40 -16.5 58t-39.5 18q-28 0 -50 -26t-52 -114zM222 603q0 27 19.5 46.5t46.5 19.5t46.5 -19.5t19.5 -46.5t-19.5 -46.5t-46.5 -19.5t-46.5 19.5t-19.5 46.5zM396 603q0 27 19.5 46.5
t46.5 19.5t46.5 -19.5t19.5 -46.5t-19.5 -46.5t-46.5 -19.5t-46.5 19.5t-19.5 46.5z" />
    <glyph glyph-name="aring" unicode="&#xe5;" 
d="M506 434l-99 -335q-15 -53 -15 -54q0 -21 18 -21q21 0 47 28.5t38 52.5l14 -8q-62 -109 -148 -109q-36 0 -56.5 29t-20.5 73h-2q-18 -38 -56 -70t-83 -32q-57 0 -89 44t-32 114q0 44 19 96t51 97.5t81.5 76t104.5 30.5q74 0 83 -74h2l18 62h125zM191 288l-31 -91
q-12 -35 -24 -87.5t-12 -65.5q0 -38 34 -38q29 0 65.5 31.5t61.5 93.5q64 160 64 221q0 40 -16.5 58t-39.5 18q-28 0 -50 -26t-52 -114zM469 596q0 -44 -32 -76t-76 -32t-76 32t-32 76t32.5 76t75.5 32q44 0 76 -32t32 -76zM361 530q28 0 47 19t19 47t-19 47t-47 19t-47 -19
t-19 -47t19 -47t47 -19z" />
    <glyph glyph-name="ae" unicode="&#xe6;" horiz-adv-x="722" 
d="M191 288l-31 -91q-12 -35 -24 -87.5t-12 -65.5q0 -38 34 -38t70.5 30t55.5 79q58 148 58 229q0 41 -15.5 62.5t-34.5 21.5q-27 0 -49 -26t-52 -114zM644 99l13 -7q-67 -104 -187 -104q-70 0 -114.5 36t-54.5 88h-3q-12 -37 -57.5 -80.5t-97.5 -43.5q-57 0 -89 44t-32 114
q0 115 75.5 207.5t170.5 92.5q37 0 62 -24t24 -75h2l25 87h127q14 6 34 9q18 3 34 3q47 0 82 -27.5t35 -75.5q0 -38 -18.5 -67.5t-48.5 -45t-62 -23.5t-64 -8q-38 0 -59 3q-27 -74 -27 -129q0 -30 23 -48.5t53 -18.5q45 0 86 26t68 67zM497 378l-53 -162q20 -5 42 -5
q32 0 49.5 16t30.5 49q31 79 31 124q0 33 -37 33q-17 1 -36 -13.5t-27 -41.5z" />
    <glyph glyph-name="ccedilla" unicode="&#xe7;" horiz-adv-x="444" 
d="M378 136l15 -6q-67 -134 -182 -141l-67 -74l2 -2q27 10 53 10q32 0 56.5 -16t24.5 -46q0 -38 -34.5 -57.5t-76.5 -19.5q-47 0 -106 21l7 18q55 -15 65 -15q26 0 48.5 13.5t22.5 37.5q0 21 -15.5 30.5t-35.5 9.5q-10 0 -33 -7l-10 8l77 89q-79 2 -123 45t-44 113
q0 125 91.5 212t195.5 87q52 0 89.5 -21.5t37.5 -72.5q0 -28 -20.5 -50.5t-53.5 -22.5q-27 0 -45.5 19.5t-18.5 49.5q0 25 13 39.5t26.5 20t13.5 9.5q0 11 -45 11q-39 0 -73 -49t-52.5 -114t-28.5 -117.5t-10 -70.5q0 -71 71 -71q49 0 95.5 39t69.5 91z" />
    <glyph glyph-name="egrave" unicode="&#xe8;" horiz-adv-x="444" 
d="M359 99l13 -7q-67 -104 -187 -104q-77 0 -120 47.5t-43 117.5q0 65 40.5 134.5t104 115t124.5 43.5q48 0 86 -28t38 -75q0 -72 -58 -108t-135 -36q-35 0 -59 8q-21 -81 -21 -134q0 -31 17 -49t46 -18q45 0 86 26t68 67zM319 393q0 21 -10 31t-23 10q-33 0 -59 -49.5
t-59 -163.5q17 -10 42 -10q31 0 48.5 16.5t29.5 48.5q31 79 31 117zM328 506h-14l-157 129q-27 21 -27 40q0 29 39 29q24 0 46 -31z" />
    <glyph glyph-name="eacute" unicode="&#xe9;" horiz-adv-x="444" 
d="M359 99l13 -7q-67 -104 -187 -104q-77 0 -120 47.5t-43 117.5q0 65 40.5 134.5t104 115t124.5 43.5q48 0 86 -28t38 -75q0 -72 -58 -108t-135 -36q-35 0 -59 8q-21 -81 -21 -134q0 -31 17 -49t46 -18q45 0 86 26t68 67zM319 393q0 21 -10 31t-23 10q-33 0 -59 -49.5
t-59 -163.5q17 -10 42 -10q31 0 48.5 16.5t29.5 48.5q31 79 31 117zM282 506h-14l113 167q22 31 46 31q39 0 39 -29q0 -19 -27 -40z" />
    <glyph glyph-name="ecircumflex" unicode="&#xea;" horiz-adv-x="444" 
d="M359 99l13 -7q-67 -104 -187 -104q-77 0 -120 47.5t-43 117.5q0 65 40.5 134.5t104 115t124.5 43.5q48 0 86 -28t38 -75q0 -72 -58 -108t-135 -36q-35 0 -59 8q-21 -81 -21 -134q0 -31 17 -49t46 -18q45 0 86 26t68 67zM319 393q0 21 -10 31t-23 10q-33 0 -59 -49.5
t-59 -163.5q17 -10 42 -10q31 0 48.5 16.5t29.5 48.5q31 79 31 117zM151 506l148 198h68l60 -198h-11l-95 126l-158 -126h-12z" />
    <glyph glyph-name="edieresis" unicode="&#xeb;" horiz-adv-x="444" 
d="M359 99l13 -7q-67 -104 -187 -104q-77 0 -120 47.5t-43 117.5q0 65 40.5 134.5t104 115t124.5 43.5q48 0 86 -28t38 -75q0 -72 -58 -108t-135 -36q-35 0 -59 8q-21 -81 -21 -134q0 -31 17 -49t46 -18q45 0 86 26t68 67zM319 393q0 21 -10 31t-23 10q-33 0 -59 -49.5
t-59 -163.5q17 -10 42 -10q31 0 48.5 16.5t29.5 48.5q31 79 31 117zM166 603q0 27 19.5 46.5t46.5 19.5t46.5 -19.5t19.5 -46.5t-19.5 -46.5t-46.5 -19.5t-46.5 19.5t-19.5 46.5zM340 603q0 27 19.5 46.5t46.5 19.5t46.5 -19.5t19.5 -46.5t-19.5 -46.5t-46.5 -19.5
t-46.5 19.5t-19.5 46.5z" />
    <glyph glyph-name="igrave" unicode="&#xec;" horiz-adv-x="333" 
d="M80 416l4 18h103q61 0 92 22l-109 -357q-15 -52 -15 -54q0 -21 18 -21q21 0 47 28.5t38 52.5l14 -8q-62 -109 -139 -109q-26 0 -45 8t-27.5 18.5t-13.5 24.5t-5.5 20t-0.5 12q0 19 12 59l89 286h-62zM273 506h-14l-157 129q-27 21 -27 40q0 29 39 29q24 0 46 -31z" />
    <glyph glyph-name="iacute" unicode="&#xed;" horiz-adv-x="333" 
d="M80 416l4 18h103q61 0 92 22l-109 -357q-15 -52 -15 -54q0 -21 18 -21q21 0 47 28.5t38 52.5l14 -8q-62 -109 -139 -109q-26 0 -45 8t-27.5 18.5t-13.5 24.5t-5.5 20t-0.5 12q0 19 12 59l89 286h-62zM227 506h-14l113 167q22 31 46 31q39 0 39 -29q0 -19 -27 -40z" />
    <glyph glyph-name="icircumflex" unicode="&#xee;" horiz-adv-x="333" 
d="M80 416l4 18h103q61 0 92 22l-109 -357q-15 -52 -15 -54q0 -21 18 -21q21 0 47 28.5t38 52.5l14 -8q-62 -109 -139 -109q-26 0 -45 8t-27.5 18.5t-13.5 24.5t-5.5 20t-0.5 12q0 19 12 59l89 286h-62zM76 506l148 198h68l60 -198h-11l-95 126l-158 -126h-12z" />
    <glyph glyph-name="idieresis" unicode="&#xef;" horiz-adv-x="333" 
d="M80 416l4 18h103q61 0 92 22l-109 -357q-15 -52 -15 -54q0 -21 18 -21q21 0 47 28.5t38 52.5l14 -8q-62 -109 -139 -109q-26 0 -45 8t-27.5 18.5t-13.5 24.5t-5.5 20t-0.5 12q0 19 12 59l89 286h-62zM111 603q0 27 19.5 46.5t46.5 19.5t46.5 -19.5t19.5 -46.5
t-19.5 -46.5t-46.5 -19.5t-46.5 19.5t-19.5 46.5zM285 603q0 27 19.5 46.5t46.5 19.5t46.5 -19.5t19.5 -46.5t-19.5 -46.5t-46.5 -19.5t-46.5 19.5t-19.5 46.5z" />
    <glyph glyph-name="eth" unicode="&#xf0;" horiz-adv-x="500" 
d="M22 159q0 83 41.5 151t100 102t118.5 34q44 0 66 -18q0 90 -40 168l-108 -54l-13 27l104 51q-24 53 -73 88l19 12q53 -29 96 -79l104 52l16 -26l-97 -47q1 -2 16 -24.5t21.5 -33t19.5 -38.5t19.5 -51.5t12 -59t5.5 -73.5q0 -89 -33 -169t-95 -131.5t-138 -51.5
q-66 0 -114 46t-48 125zM348 378q0 30 -13.5 43t-44.5 13q-20 0 -35 -7t-26 -22.5t-16 -26t-13 -30.5q-28 -72 -52 -159t-24 -123q0 -66 59 -66q17 0 32 6.5t23 13.5t17.5 23.5t11.5 22.5t10 25q17 43 44 152t27 135z" />
    <glyph glyph-name="ntilde" unicode="&#xf1;" 
d="M3 0l120 416h-58l4 18h103q61 0 92 22l-41 -127l2 -1q22 27 35 41t36.5 35.5t48.5 31.5t52 10q44 0 68.5 -22.5t24.5 -61.5q0 -26 -38 -136l-45 -127q-15 -45 -15 -54q0 -21 18 -21q21 0 47 28.5t38 52.5l14 -8q-62 -109 -148 -109q-38 0 -60.5 24.5t-22.5 59.5
q0 12 14 57l79 234q11 33 11 44q0 15 -21 15q-34 0 -88.5 -61t-66.5 -101l-75 -260h-128zM511 667h15q-12 -45 -38 -82.5t-63 -37.5q-22 0 -75.5 21t-76.5 21q-26 0 -37.5 -8.5t-23.5 -33.5h-15q12 45 38 82.5t63 37.5q22 0 75.5 -21t76.5 -21q26 0 37.5 8.5t23.5 33.5z" />
    <glyph glyph-name="ograve" unicode="&#xf2;" horiz-adv-x="500" 
d="M450 263q0 -101 -76.5 -188t-189.5 -87q-66 0 -114 46t-48 125q0 83 41.5 151t100 102t118.5 34q78 0 123 -52t45 -131zM348 378q0 30 -13.5 43t-44.5 13q-20 0 -35 -7t-26 -22.5t-16 -26t-13 -30.5q-28 -72 -52 -159t-24 -123q0 -66 59 -66q17 0 32 6.5t23 13.5
t17.5 23.5t11.5 22.5t10 25q17 43 44 152t27 135zM356 506h-14l-157 129q-27 21 -27 40q0 29 39 29q24 0 46 -31z" />
    <glyph glyph-name="oacute" unicode="&#xf3;" horiz-adv-x="500" 
d="M450 263q0 -101 -76.5 -188t-189.5 -87q-66 0 -114 46t-48 125q0 83 41.5 151t100 102t118.5 34q78 0 123 -52t45 -131zM348 378q0 30 -13.5 43t-44.5 13q-20 0 -35 -7t-26 -22.5t-16 -26t-13 -30.5q-28 -72 -52 -159t-24 -123q0 -66 59 -66q17 0 32 6.5t23 13.5
t17.5 23.5t11.5 22.5t10 25q17 43 44 152t27 135zM310 506h-14l113 167q22 31 46 31q39 0 39 -29q0 -19 -27 -40z" />
    <glyph glyph-name="ocircumflex" unicode="&#xf4;" horiz-adv-x="500" 
d="M450 263q0 -101 -76.5 -188t-189.5 -87q-66 0 -114 46t-48 125q0 83 41.5 151t100 102t118.5 34q78 0 123 -52t45 -131zM348 378q0 30 -13.5 43t-44.5 13q-20 0 -35 -7t-26 -22.5t-16 -26t-13 -30.5q-28 -72 -52 -159t-24 -123q0 -66 59 -66q17 0 32 6.5t23 13.5
t17.5 23.5t11.5 22.5t10 25q17 43 44 152t27 135zM179 506l148 198h68l60 -198h-11l-95 126l-158 -126h-12z" />
    <glyph glyph-name="otilde" unicode="&#xf5;" horiz-adv-x="500" 
d="M450 263q0 -101 -76.5 -188t-189.5 -87q-66 0 -114 46t-48 125q0 83 41.5 151t100 102t118.5 34q78 0 123 -52t45 -131zM348 378q0 30 -13.5 43t-44.5 13q-20 0 -35 -7t-26 -22.5t-16 -26t-13 -30.5q-28 -72 -52 -159t-24 -123q0 -66 59 -66q17 0 32 6.5t23 13.5
t17.5 23.5t11.5 22.5t10 25q17 43 44 152t27 135zM483 667h15q-12 -45 -38 -82.5t-63 -37.5q-22 0 -75.5 21t-76.5 21q-26 0 -37.5 -8.5t-23.5 -33.5h-15q12 45 38 82.5t63 37.5q22 0 75.5 -21t76.5 -21q26 0 37.5 8.5t23.5 33.5z" />
    <glyph glyph-name="odieresis" unicode="&#xf6;" horiz-adv-x="500" 
d="M450 263q0 -101 -76.5 -188t-189.5 -87q-66 0 -114 46t-48 125q0 83 41.5 151t100 102t118.5 34q78 0 123 -52t45 -131zM348 378q0 30 -13.5 43t-44.5 13q-20 0 -35 -7t-26 -22.5t-16 -26t-13 -30.5q-28 -72 -52 -159t-24 -123q0 -66 59 -66q17 0 32 6.5t23 13.5
t17.5 23.5t11.5 22.5t10 25q17 43 44 152t27 135zM194 603q0 27 19.5 46.5t46.5 19.5t46.5 -19.5t19.5 -46.5t-19.5 -46.5t-46.5 -19.5t-46.5 19.5t-19.5 46.5zM368 603q0 27 19.5 46.5t46.5 19.5t46.5 -19.5t19.5 -46.5t-19.5 -46.5t-46.5 -19.5t-46.5 19.5t-19.5 46.5z
" />
    <glyph glyph-name="divide" unicode="&#xf7;" horiz-adv-x="600" 
d="M47 211v84h506v-84h-506zM224 460q0 28 22 50t50 22t50 -22t22 -50t-22 -50t-50 -22t-50 22t-22 50zM224 46q0 28 22 50t50 22t50 -22t22 -50t-22 -50t-50 -22t-50 22t-22 50z" />
    <glyph glyph-name="oslash" unicode="&#xf8;" horiz-adv-x="500" 
d="M346 370l-222 -304q0 -66 59 -66q19 0 33 5t27.5 23.5t23.5 40.5t24 69.5t25.5 96t31.5 133.5zM131 105l217 292q0 15 -15.5 26t-42.5 11q-54 0 -82.5 -64.5t-78.5 -262.5zM55 -26l-15 11l34 46q-52 47 -52 128q0 83 41.5 151t100 102t118.5 34q48 0 84 -21l30 41l15 -10
l-30 -40q69 -51 69 -153q0 -101 -76.5 -188t-189.5 -87q-54 0 -95 32z" />
    <glyph glyph-name="ugrave" unicode="&#xf9;" 
d="M61 416l4 18h103q61 0 92 22l-108 -356q-15 -47 -15 -63q0 -19 22 -19q16 0 44 25t51 56q37 51 49 89l79 246h129l-104 -335q-15 -53 -15 -54q0 -21 18 -21q21 0 47 28.5t38 52.5l14 -8q-62 -109 -148 -109q-39 0 -61 24t-22 56q0 21 8 49h-2q-19 -29 -32.5 -46
t-36.5 -39t-51 -33t-60 -11q-37 0 -59 21.5t-22 57.5q0 15 13 63l87 286h-62zM384 506h-14l-157 129q-27 21 -27 40q0 29 39 29q24 0 46 -31z" />
    <glyph glyph-name="uacute" unicode="&#xfa;" 
d="M61 416l4 18h103q61 0 92 22l-108 -356q-15 -47 -15 -63q0 -19 22 -19q16 0 44 25t51 56q37 51 49 89l79 246h129l-104 -335q-15 -53 -15 -54q0 -21 18 -21q21 0 47 28.5t38 52.5l14 -8q-62 -109 -148 -109q-39 0 -61 24t-22 56q0 21 8 49h-2q-19 -29 -32.5 -46
t-36.5 -39t-51 -33t-60 -11q-37 0 -59 21.5t-22 57.5q0 15 13 63l87 286h-62zM338 506h-14l113 167q22 31 46 31q39 0 39 -29q0 -19 -27 -40z" />
    <glyph glyph-name="ucircumflex" unicode="&#xfb;" 
d="M61 416l4 18h103q61 0 92 22l-108 -356q-15 -47 -15 -63q0 -19 22 -19q16 0 44 25t51 56q37 51 49 89l79 246h129l-104 -335q-15 -53 -15 -54q0 -21 18 -21q21 0 47 28.5t38 52.5l14 -8q-62 -109 -148 -109q-39 0 -61 24t-22 56q0 21 8 49h-2q-19 -29 -32.5 -46
t-36.5 -39t-51 -33t-60 -11q-37 0 -59 21.5t-22 57.5q0 15 13 63l87 286h-62zM207 506l148 198h68l60 -198h-11l-95 126l-158 -126h-12z" />
    <glyph glyph-name="udieresis" unicode="&#xfc;" 
d="M61 416l4 18h103q61 0 92 22l-108 -356q-15 -47 -15 -63q0 -19 22 -19q16 0 44 25t51 56q37 51 49 89l79 246h129l-104 -335q-15 -53 -15 -54q0 -21 18 -21q21 0 47 28.5t38 52.5l14 -8q-62 -109 -148 -109q-39 0 -61 24t-22 56q0 21 8 49h-2q-19 -29 -32.5 -46
t-36.5 -39t-51 -33t-60 -11q-37 0 -59 21.5t-22 57.5q0 15 13 63l87 286h-62zM222 603q0 27 19.5 46.5t46.5 19.5t46.5 -19.5t19.5 -46.5t-19.5 -46.5t-46.5 -19.5t-46.5 19.5t-19.5 46.5zM396 603q0 27 19.5 46.5t46.5 19.5t46.5 -19.5t19.5 -46.5t-19.5 -46.5t-46.5 -19.5
t-46.5 19.5t-19.5 46.5z" />
    <glyph glyph-name="yacute" unicode="&#xfd;" 
d="M169 -49l-37 344q-3 27 -5.5 41t-10 26t-18.5 12q-10 0 -19 -5t-17 -15.5t-12.5 -17.5t-12 -21.5t-8.5 -17.5l-14 5q72 144 159 144q66 0 72 -70l25 -254h2l143 243q48 81 103 81q29 0 46.5 -17t17.5 -47q0 -28 -18 -48t-46 -20q-23 0 -39.5 14.5t-16.5 37.5t12 38
q-15 0 -52 -60l-275 -465q-41 -71 -81 -107.5t-104 -36.5q-32 0 -54.5 18.5t-22.5 49.5q0 32 18 54t49 22q23 0 41 -14.5t18 -43.5q0 -21 -10 -34t-20 -17.5t-10 -6.5q0 -10 12 -10q35 0 69.5 26.5t58.5 69.5zM338 506h-14l113 167q22 31 46 31q39 0 39 -29q0 -19 -27 -40z
" />
    <glyph glyph-name="thorn" unicode="&#xfe;" 
d="M-111 -265l4 18h51l274 933h-62l4 18h54q104 0 143 31l-108 -377h2q23 36 61 62t80 26q58 0 86 -43t28 -105q0 -65 -26.5 -134.5t-82.5 -122.5t-126 -53q-80 0 -100 92h-2l-97 -327h66l-5 -18h-244zM229 285l-31 -107q-15 -56 -15 -73q0 -30 18.5 -61.5t45.5 -31.5
q28 0 49 34t51 118q18 50 34.5 116.5t16.5 101.5q0 40 -35 40q-36 0 -78 -45t-56 -92z" />
    <glyph glyph-name="ydieresis" unicode="&#xff;" 
d="M169 -49l-37 344q-3 27 -5.5 41t-10 26t-18.5 12q-10 0 -19 -5t-17 -15.5t-12.5 -17.5t-12 -21.5t-8.5 -17.5l-14 5q72 144 159 144q66 0 72 -70l25 -254h2l143 243q48 81 103 81q29 0 46.5 -17t17.5 -47q0 -28 -18 -48t-46 -20q-23 0 -39.5 14.5t-16.5 37.5t12 38
q-15 0 -52 -60l-275 -465q-41 -71 -81 -107.5t-104 -36.5q-32 0 -54.5 18.5t-22.5 49.5q0 32 18 54t49 22q23 0 41 -14.5t18 -43.5q0 -21 -10 -34t-20 -17.5t-10 -6.5q0 -10 12 -10q35 0 69.5 26.5t58.5 69.5zM222 603q0 27 19.5 46.5t46.5 19.5t46.5 -19.5t19.5 -46.5
t-19.5 -46.5t-46.5 -19.5t-46.5 19.5t-19.5 46.5zM396 603q0 27 19.5 46.5t46.5 19.5t46.5 -19.5t19.5 -46.5t-19.5 -46.5t-46.5 -19.5t-46.5 19.5t-19.5 46.5z" />
    <glyph glyph-name="dotlessi" unicode="&#x131;" horiz-adv-x="333" 
d="M80 416l4 18h103q61 0 92 22l-109 -357q-15 -52 -15 -54q0 -21 18 -21q21 0 47 28.5t38 52.5l14 -8q-62 -109 -139 -109q-26 0 -45 8t-27.5 18.5t-13.5 24.5t-5.5 20t-0.5 12q0 19 12 59l89 286h-62z" />
    <glyph glyph-name="Lslash" unicode="&#x141;" horiz-adv-x="667" 
d="M-46 0l5 18h73l78 279l-81 -42l12 40l80 41l97 350h-79l5 18h301l-5 -18h-73l-73 -261l184 95l-12 -40l-183 -94l-103 -368h113q113 0 196.5 67t118.5 190l15 -3l-77 -272h-592z" />
    <glyph glyph-name="lslash" unicode="&#x142;" horiz-adv-x="333" 
d="M151 686l4 18h52q104 0 143 31l-86 -296l104 58l-12 -42l-105 -58l-86 -298q-15 -52 -15 -54q0 -21 18 -21q21 0 47 28.5t38 52.5l14 -8q-62 -109 -139 -109q-26 0 -45 8t-27.5 18.5t-13.5 24.5t-5.5 20t-0.5 12q0 19 12 59l55 188l-73 -40l12 41l74 41l95 326h-60z" />
    <glyph glyph-name="OE" unicode="&#x152;" horiz-adv-x="1000" 
d="M1019 704l-36 -192h-17q5 35 5 42q0 132 -122 132h-114l-83 -296h69q37 0 59 14.5t34 47.5l16 46h17q-48 -168 -67 -253h-16q10 42 10 74q0 30 -17.5 41.5t-53.5 11.5h-56l-99 -354h111q100 0 162.5 60t92.5 145h17l-61 -223h-407q-8 0 -39 -5t-41 -6q-43 -5 -59 -5
q-120 0 -198 76.5t-77 203.5q0 113 58.5 219t154.5 171.5t198 65.5q35 0 55 -4q15 -3 45 -8q17 -4 53 -4h406zM430 118l140 501q6 19 6 35q0 48 -113 48q-38 0 -71 -17.5t-55.5 -43.5t-43 -68t-33.5 -77.5t-27 -84.5q-58 -201 -58 -282q0 -54 35.5 -90.5t96.5 -36.5
t81.5 19.5t41.5 96.5z" />
    <glyph glyph-name="oe" unicode="&#x153;" horiz-adv-x="722" 
d="M348 378q0 30 -13.5 43t-44.5 13q-20 0 -35 -7t-26 -22.5t-16 -26t-13 -30.5q-28 -74 -52 -160t-24 -122q0 -66 59 -66q17 0 32 6.5t23 13.5t17.5 23.5t11.5 22.5t10 25q17 43 44 152t27 135zM637 99l13 -7q-67 -104 -187 -104q-84 0 -126 51q-61 -51 -153 -51
q-66 0 -114 46t-48 125q0 83 41.5 151t100 102t118.5 34q40 0 76.5 -15.5t55.5 -45.5q70 61 155 61q48 0 86 -28t38 -75q0 -72 -58 -108t-135 -36q-35 0 -59 8q-21 -81 -21 -134q0 -31 17 -49t46 -18q45 0 86 26t68 67zM597 393q0 21 -10 31t-23 10q-33 0 -59 -49.5
t-59 -163.5q17 -10 42 -10q31 0 48.5 16.5t29.5 48.5q31 79 31 117z" />
    <glyph glyph-name="Scaron" unicode="&#x160;" horiz-adv-x="611" 
d="M58 270l16 -5q-10 -26 -10 -61q0 -93 57.5 -147.5t150.5 -54.5q82 0 131 46.5t49 127.5q0 38 -31 66t-75 47.5t-88.5 41t-75.5 59t-31 89.5q0 40 14.5 81t41.5 77.5t73 59.5t103 23q45 0 89.5 -15t74.5 -30.5t40 -15.5q12 0 27 26l12 -4q-38 -111 -62 -206l-16 3
q4 15 4 44q0 77 -46.5 128.5t-123.5 51.5q-75 0 -117 -36.5t-42 -85.5q0 -35 33 -63.5t79.5 -51t93.5 -47t80 -63t33 -86.5q0 -113 -77 -199t-191 -86q-40 0 -80 12t-65 26.5t-49 26.5t-37 12q-31 0 -44 -36l-14 5q45 131 73 240zM602 937l-148 -198h-68l-60 198h11l95 -128
l158 128h12z" />
    <glyph glyph-name="scaron" unicode="&#x161;" horiz-adv-x="444" 
d="M357 135q0 -48 -32 -82.5t-76 -49.5t-93 -15q-54 0 -103.5 31t-49.5 79q0 31 16 50.5t45 19.5q26 0 42.5 -18t16.5 -43q0 -29 -15.5 -43t-37.5 -16q-17 0 -17 -7q0 -5 14 -14.5t40 -18t51 -8.5q103 0 103 83q0 28 -27 50t-59 36t-59 43.5t-27 70.5q0 70 54.5 116.5
t128.5 46.5q47 0 90 -22t43 -66q0 -30 -15 -49t-44 -19q-24 0 -39.5 17t-15.5 42q0 47 43 55q11 2 11 7q0 3 -10.5 8.5t-28.5 10t-35 4.5q-36 0 -67 -19.5t-31 -56.5q0 -26 19 -45t46 -32t54 -29t46 -45.5t19 -71.5zM468 704l-148 -198h-68l-60 198h11l95 -128l158 128h12z
" />
    <glyph glyph-name="Ydieresis" unicode="&#x178;" horiz-adv-x="611" 
d="M73 0l5 18h69l84 298l-38 370h-75l5 18h299l-5 -18h-79l35 -362l186 258q35 47 35 79q0 25 -40 25h-27l5 18h183l-5 -18h-16q-25 0 -41.5 -13.5t-43.5 -49.5l-235 -325l-79 -280h80l-5 -18h-297zM310 836q0 27 19.5 46.5t46.5 19.5t46.5 -19.5t19.5 -46.5t-19.5 -46.5
t-46.5 -19.5t-46.5 19.5t-19.5 46.5zM484 836q0 27 19.5 46.5t46.5 19.5t46.5 -19.5t19.5 -46.5t-19.5 -46.5t-46.5 -19.5t-46.5 19.5t-19.5 46.5z" />
    <glyph glyph-name="Zcaron" unicode="&#x17d;" horiz-adv-x="667" 
d="M-11 0l523 686h-117q-48 0 -85 -12t-64.5 -37.5t-43.5 -47t-38 -59.5l-22 -38h-12l48 212h528l-524 -686h177q71 0 137 56.5t106 144.5h14l-57 -219h-570zM640 937l-148 -198h-68l-60 198h11l95 -128l158 128h12z" />
    <glyph glyph-name="zcaron" unicode="&#x17e;" horiz-adv-x="500" 
d="M28 72l301 267h-2q-71 -30 -176 -30q-54 0 -85 14l-22 -41l-14 6q12 24 25 49.5t28 56t23 46.5q102 -35 211 -35q16 0 42 3t38 3q0 35 19 35q17 0 17 -25q0 -19 -52 -64l-282 -244l2 -2q45 15 84 15q43 0 108.5 -33t82.5 -33q13 0 23 14t10 24q0 6 -5 6q-2 0 -6.5 -1
t-7.5 -1q-21 0 -34.5 13.5t-13.5 35.5q0 21 13 34t34 13q49 0 49 -56q0 -53 -47.5 -100.5t-119.5 -47.5q-40 0 -114 27t-107 27q-13 0 -13 -9q0 -4 2.5 -8.5t2.5 -7.5q0 -9 -7.5 -16t-19.5 -7q-7 0 -14 6t-7 14q0 22 34 52zM496 704l-148 -198h-68l-60 198h11l95 -128
l158 128h12z" />
    <glyph glyph-name="florin" unicode="&#x192;" 
d="M208 339h-133l6 18h131q14 73 57 153t113 141t142 61q38 0 66.5 -17t28.5 -54q0 -29 -17 -44t-43 -15q-60 0 -60 57q0 17 7.5 27.5t15 16t7.5 8.5t-14 3q-33 0 -62 -44.5t-44.5 -96t-32 -116t-22.5 -80.5h138l-4 -18h-140q-11 -38 -43 -158t-55 -185q-19 -52 -37 -89.5
t-47 -77.5t-69.5 -61.5t-90.5 -21.5q-34 0 -61 17.5t-27 49.5q0 25 16 43t41 18q63 0 63 -53q0 -17 -6 -28.5t-12.5 -16.5t-6.5 -7q0 -5 14 -5q10 0 19.5 6t17.5 19t14 24t12.5 30t9.5 28.5t8 27.5t5 19q18 63 33 129.5t35 162.5t27 129z" />
    <glyph glyph-name="circumflex" unicode="&#x2c6;" horiz-adv-x="278" 
d="M68 506l148 198h68l60 -198h-11l-95 126l-158 -126h-12z" />
    <glyph glyph-name="caron" unicode="&#x2c7;" horiz-adv-x="278" 
d="M385 704l-148 -198h-68l-60 198h11l95 -128l158 128h12z" />
    <glyph glyph-name="uni02C9" unicode="&#x2c9;" horiz-adv-x="278" 
d="M105 640h250l-14 -60h-250z" />
    <glyph glyph-name="breve" unicode="&#x2d8;" horiz-adv-x="278" 
d="M369 685h15q-22 -69 -66.5 -112.5t-111.5 -43.5q-47 0 -79.5 29t-32.5 76q0 26 6 52h15q0 -2 -1.5 -7t-1.5 -9q0 -36 35 -55.5t78 -19.5q47 0 88.5 24t55.5 66z" />
    <glyph glyph-name="dotaccent" unicode="&#x2d9;" horiz-adv-x="278" 
d="M133 603q0 27 19.5 46.5t46.5 19.5t46.5 -19.5t19.5 -46.5t-19.5 -46.5t-46.5 -19.5t-46.5 19.5t-19.5 46.5z" />
    <glyph glyph-name="ring" unicode="&#x2da;" horiz-adv-x="278" 
d="M330 596q0 -44 -32 -76t-76 -32t-76 32t-32 76t32 76t76 32t76 -32t32 -76zM222 530q28 0 47 19t19 47t-19 47t-47 19t-47 -19t-19 -47t19 -47t47 -19z" />
    <glyph glyph-name="ogonek" unicode="&#x2db;" horiz-adv-x="278" 
d="M213 -147l5 -16q-58 -35 -109 -35q-38 0 -63.5 18t-25.5 54q0 76 143 126h17q-2 -2 -14 -9.5t-17 -11.5t-16 -12.5t-16.5 -15.5t-12 -16.5t-9.5 -19t-3 -20.5q0 -25 16 -41t49 -16q21 0 56 15z" />
    <glyph glyph-name="tilde" unicode="&#x2dc;" horiz-adv-x="278" 
d="M372 667h15q-12 -45 -38 -82.5t-63 -37.5q-22 0 -75.5 21t-76.5 21q-26 0 -37.5 -8.5t-23.5 -33.5h-15q12 45 38 82.5t63 37.5q22 0 75.5 -21t76.5 -21q26 0 37.5 8.5t23.5 33.5z" />
    <glyph glyph-name="hungarumlaut" unicode="&#x2dd;" horiz-adv-x="278" 
d="M118 506h-14l113 167q22 31 46 31q39 0 39 -29q0 -19 -27 -40zM278 506h-14l113 167q22 31 46 31q39 0 39 -29q0 -19 -27 -40z" />
    <glyph glyph-name="uni03A9" unicode="&#x3a9;" horiz-adv-x="727" 
d="M662 146l-56 -146h-237l-3 19q7 10 40 54.5t51 71.5t44.5 70.5t43 85t25.5 82.5q31 149 -8 219t-119 70q-84 0 -150 -70t-98 -224q-8 -37 -9 -77.5t2 -71t13 -70.5t16.5 -62t19.5 -60l6 -18l-12 -19h-235l7 146l26 2q5 -47 17.5 -61.5t43.5 -14.5h103q-14 15 -24 26.5
t-24.5 31.5t-24.5 38t-19.5 44t-13.5 51.5t-3.5 57.5t7.5 65q31 143 133.5 230.5t228.5 87.5q128 0 191 -84t32 -227q-11 -51 -36 -99t-63 -90t-68 -69.5t-73 -62.5h109q32 0 48.5 13t42.5 63z" />
    <glyph glyph-name="uni03BC" unicode="&#x3bc;" 
d="M61 416l4 18h103q61 0 92 22l-108 -356q-15 -47 -15 -63q0 -19 22 -19q16 0 44 25t51 56q37 51 49 89l79 246h129l-104 -335q-15 -53 -15 -54q0 -21 18 -21q21 0 47 28.5t38 52.5l14 -8q-62 -109 -148 -109q-39 0 -61 24t-22 56q0 21 8 49h-2q-25 -37 -44 -60t-52.5 -45
t-70.5 -24l-23 -104q-15 -67 -33 -100t-34.5 -41t-45.5 -8q-21 0 -36 17t-15 38q0 38 38 130q38 95 48 129l107 367h-62z" />
    <glyph glyph-name="pi" unicode="&#x3c0;" horiz-adv-x="567" 
d="M554 477l23 -9q-24 -60 -56 -93q-17 -4 -68 -4q-16 -52 -54 -231q-20 -92 24 -92q21 0 55 29l9 -21q-53 -68 -120 -68q-43 0 -60 29t-2 101q20 97 64 255q-112 2 -152 2l-4 -18q-22 -105 -54 -188.5t-52.5 -117t-34.5 -46.5q-39 -15 -65 -17l-2 17q63 63 107.5 169
t65.5 203q-45 0 -72 -10t-67 -35l-9 23q2 2 11.5 11t13 12.5t13 12.5t15.5 12.5t17 11t19 11t20.5 8.5t24.5 7.5t26.5 4t29.5 1.5q35 0 125 -2q92 -2 142 -2q24 0 37.5 6.5t29.5 27.5z" />
    <glyph glyph-name="uni2010" unicode="&#x2010;" horiz-adv-x="500" 
d="M74 217l26 84h304l-26 -84h-304z" />
    <glyph glyph-name="endash" unicode="&#x2013;" horiz-adv-x="500" 
d="M-11 220l22 78h500l-22 -78h-500z" />
    <glyph glyph-name="emdash" unicode="&#x2014;" horiz-adv-x="1000" 
d="M1011 298l-22 -78h-1000l22 78h1000z" />
    <glyph glyph-name="quoteleft" unicode="&#x2018;" horiz-adv-x="278" 
d="M298 720l3 -17q-43 -11 -90.5 -57.5t-47.5 -87.5q0 -7 5 -7q2 0 11.5 2.5t18.5 2.5q24 0 41.5 -18t17.5 -42q0 -35 -21.5 -59.5t-55.5 -24.5q-30 0 -47.5 23.5t-17.5 54.5q0 70 56.5 138.5t126.5 91.5z" />
    <glyph glyph-name="quoteright" unicode="&#x2019;" horiz-adv-x="278" 
d="M118 412l-3 17q43 11 90.5 57.5t47.5 87.5q0 7 -5 7q-2 0 -11.5 -2.5t-18.5 -2.5q-24 0 -41.5 18t-17.5 42q0 35 21.5 59.5t55.5 24.5q30 0 47.5 -23.5t17.5 -54.5q0 -70 -56.5 -138.5t-126.5 -91.5z" />
    <glyph glyph-name="quotesinglbase" unicode="&#x201a;" horiz-adv-x="278" 
d="M-22 -172l-3 17q43 11 90.5 57.5t47.5 87.5q0 7 -5 7q-2 0 -12 -2q-6 -3 -18 -3q-24 0 -41.5 18t-17.5 42q0 35 21.5 59.5t55.5 24.5q30 0 47.5 -23.5t17.5 -54.5q0 -70 -56.5 -138.5t-126.5 -91.5z" />
    <glyph glyph-name="quotedblleft" unicode="&#x201c;" horiz-adv-x="500" 
d="M313 720l3 -17q-43 -11 -90.5 -57.5t-47.5 -87.5q0 -7 5 -7q2 0 11.5 2.5t18.5 2.5q24 0 41.5 -18t17.5 -42q0 -35 -21.5 -59.5t-55.5 -24.5q-30 0 -47.5 23.5t-17.5 54.5q0 70 56.5 138.5t126.5 91.5zM505 720l3 -17q-43 -11 -90.5 -57.5t-47.5 -87.5q0 -7 5 -7
q2 0 11.5 2.5t18.5 2.5q24 0 41.5 -18t17.5 -42q0 -35 -21.5 -59.5t-55.5 -24.5q-30 0 -47.5 23.5t-17.5 54.5q0 70 56.5 138.5t126.5 91.5z" />
    <glyph glyph-name="quotedblright" unicode="&#x201d;" horiz-adv-x="500" 
d="M133 412l-3 17q43 11 90.5 57.5t47.5 87.5q0 7 -5 7q-2 0 -11.5 -2.5t-18.5 -2.5q-24 0 -41.5 18t-17.5 42q0 35 21.5 59.5t55.5 24.5q30 0 47.5 -23.5t17.5 -54.5q0 -70 -56.5 -138.5t-126.5 -91.5zM325 412l-3 17q43 11 90.5 57.5t47.5 87.5q0 7 -5 7q-2 0 -11.5 -2.5
t-18.5 -2.5q-24 0 -41.5 18t-17.5 42q0 35 21.5 59.5t55.5 24.5q30 0 47.5 -23.5t17.5 -54.5q0 -70 -56.5 -138.5t-126.5 -91.5z" />
    <glyph glyph-name="quotedblbase" unicode="&#x201e;" horiz-adv-x="500" 
d="M0 -172l-3 17q43 11 90.5 57.5t47.5 87.5q0 7 -5 7q-2 0 -12 -2q-6 -3 -18 -3q-24 0 -41.5 18t-17.5 42q0 35 21.5 59.5t55.5 24.5q30 0 47.5 -23.5t17.5 -54.5q0 -70 -56.5 -138.5t-126.5 -91.5zM192 -172l-3 17q43 11 90.5 57.5t47.5 87.5q0 7 -5 7q-2 0 -12 -2
q-6 -3 -18 -3q-24 0 -41.5 18t-17.5 42q0 35 21.5 59.5t55.5 24.5q30 0 47.5 -23.5t17.5 -54.5q0 -70 -56.5 -138.5t-126.5 -91.5z" />
    <glyph glyph-name="dagger" unicode="&#x2020;" 
d="M253 253l29 91q-94 -5 -147 -35q-60 -34 -66 -34q-9 0 -9 8q0 7 10.5 21t10.5 15q0 5 -26 17t-26 19t36.5 16.5t36.5 17.5q0 3 -2.5 13t-2.5 14q0 14 8 14q7 0 21 -12q54 -51 162 -56q21 90 21 143q0 36 -8.5 66t-17.5 47t-9 22q0 9 10 9q5 0 21 -8t19 -8q4 0 8 4t9 11.5
t9 14.5t9 16.5t8 14.5q16 26 28 26q10 0 10 -23q0 -61 9 -61q6 0 21 5.5t20 5.5q12 0 12 -7q0 -6 -12 -19t-33.5 -36.5t-37.5 -46.5q-51 -77 -80 -176q102 9 172 48q37 20 44 20q5 0 5 -8q0 -10 -9.5 -24.5t-9.5 -16.5q0 -4 25.5 -14t25.5 -18q0 -7 -40 -18q-30 -8 -30 -11
t1.5 -13.5t1.5 -15.5q0 -19 -9 -19q-4 0 -21 13q-27 27 -73.5 43t-87.5 16l-22 -91q-41 -169 -41 -274q0 -73 17 -130q3 -10 -9 -10q-5 0 -22 7.5t-21 7.5q-8 0 -14 -16q-10 -23 -29.5 -55t-31.5 -32q-7 0 -12.5 12.5t-5.5 26.5q0 13 1 25t1.5 19t0.5 8q0 14 -7 14
q-2 0 -20.5 -7t-24.5 -7q-10 0 -10 8q0 7 12 23q73 93 112 172t80 208z" />
    <glyph glyph-name="daggerdbl" unicode="&#x2021;" 
d="M231 181q0 21 -27 55q49 35 66.5 69.5t33.5 106.5q-95 -5 -149 -35q-59 -34 -66 -34q-9 0 -9 8q0 7 10.5 21t10.5 15q0 5 -26 17t-26 19t36.5 16.5t36.5 17.5q0 3 -2.5 13t-2.5 14q0 14 8 14q7 0 21 -12q54 -51 163 -56q11 46 11 75q0 36 -10 66t-20.5 47t-10.5 22
q0 9 10 9q5 0 21 -8t19 -8q4 0 8 4t9 11.5t9 14.5t9 16.5t8 14.5q16 26 28 26q10 0 10 -23q0 -61 9 -61q6 0 21 5.5t20 5.5q12 0 12 -7q0 -10 -33 -41q-68 -66 -112 -169q103 9 174 48q37 20 44 20q5 0 5 -8q0 -10 -9.5 -24.5t-9.5 -16.5q0 -4 25.5 -14t25.5 -18
q0 -7 -40 -18q-30 -8 -30 -11t1.5 -13.5t1.5 -15.5q0 -19 -9 -19q-4 0 -21 13q-27 27 -73.5 43t-88.5 16q-26 -72 -26 -121q0 -21 27 -55q-49 -35 -66.5 -69.5t-33.5 -106.5q95 5 149 35q59 34 66 34q9 0 9 -8q0 -7 -10.5 -21t-10.5 -15q0 -5 26 -17t26 -19t-36.5 -16.5
t-36.5 -17.5q0 -3 2.5 -13t2.5 -14q0 -14 -8 -14q-7 0 -21 12q-54 51 -163 56q-11 -46 -11 -75q0 -36 10 -66t20.5 -47t10.5 -22q0 -9 -10 -9q-5 0 -21 8t-19 8q-4 0 -8 -4t-9 -11.5t-9 -14.5t-9 -16.5t-8 -14.5q-7 -11 -9.5 -14.5t-7.5 -8t-11 -4.5q-10 0 -10 24
q0 61 -9 61q-6 0 -21 -5.5t-20 -5.5q-12 0 -12 7q0 10 33 41q68 66 112 169q-103 -9 -174 -48q-37 -20 -44 -20q-5 0 -5 8q0 10 9.5 24.5t9.5 16.5q0 4 -25.5 14t-25.5 18q0 7 40 18q30 8 30 11t-1.5 13.5t-1.5 15.5q0 19 9 19q4 0 21 -13q27 -27 73.5 -43t88.5 -16
q26 72 26 121z" />
    <glyph glyph-name="bullet" unicode="&#x2022;" horiz-adv-x="500" 
d="M87 352q0 73 51.5 124.5t124.5 51.5t124.5 -51.5t51.5 -124.5t-51.5 -124.5t-124.5 -51.5t-124.5 51.5t-51.5 124.5z" />
    <glyph glyph-name="ellipsis" unicode="&#x2026;" horiz-adv-x="1000" 
d="M38 53q0 33 21.5 58t53.5 25q30 0 46.5 -17t16.5 -47q0 -27 -18.5 -53.5t-63.5 -26.5q-19 0 -32 8t-17.5 21t-5.5 19.5t-1 12.5zM371 53q0 33 21.5 58t53.5 25q30 0 46.5 -17t16.5 -47q0 -27 -18.5 -53.5t-63.5 -26.5q-19 0 -32 8t-17.5 21t-5.5 19.5t-1 12.5zM704 53
q0 33 21.5 58t53.5 25q30 0 46.5 -17t16.5 -47q0 -27 -18.5 -53.5t-63.5 -26.5q-19 0 -32 8t-17.5 21t-5.5 19.5t-1 12.5z" />
    <glyph glyph-name="perthousand" unicode="&#x2030;" horiz-adv-x="1000" 
d="M477 4q26 0 46 29.5t41 105.5l29 106q8 30 8 63q0 16 -9.5 27.5t-23.5 11.5q-25 0 -43 -26t-37 -90l-29 -101q-16 -59 -16 -85q0 -16 9.5 -28.5t24.5 -12.5zM102 -16l465 736h43l-464 -736h-44zM145 357q26 0 46 29.5t41 105.5l29 106q8 30 8 63q0 16 -9.5 27.5
t-23.5 11.5q-25 0 -43 -26t-37 -90l-29 -101q-16 -59 -16 -85q0 -16 9.5 -28.5t24.5 -12.5zM482 -8q-53 0 -76 39.5t-23 91.5q0 78 55 157t125 79q49 0 73.5 -40.5t24.5 -90.5q0 -47 -22.5 -101t-65 -94.5t-91.5 -40.5zM150 345q-53 0 -76 39.5t-23 91.5q0 78 55 157t125 79
q49 0 73.5 -40.5t24.5 -90.5q0 -47 -22.5 -101t-65 -94.5t-91.5 -40.5zM795 -8q-53 0 -76 39.5t-23 91.5q0 78 55 157t125 79q49 0 73.5 -40.5t24.5 -90.5q0 -47 -22.5 -101t-65 -94.5t-91.5 -40.5zM790 4q26 0 46 29.5t41 105.5l29 106q8 30 8 63q0 16 -9.5 27.5
t-23.5 11.5q-25 0 -43 -26t-37 -90l-29 -101q-16 -59 -16 -85q0 -16 9.5 -28.5t24.5 -12.5z" />
    <glyph glyph-name="guilsinglleft" unicode="&#x2039;" horiz-adv-x="278" 
d="M122 88l-88 171l150 171h60l-152 -171l84 -171h-54z" />
    <glyph glyph-name="guilsinglright" unicode="&#x203a;" horiz-adv-x="278" 
d="M156 430l88 -171l-150 -171h-60l152 171l-84 171h54z" />
    <glyph glyph-name="fraction" unicode="&#x2044;" horiz-adv-x="167" 
d="M-164 -16l463 736h45l-463 -736h-45z" />
    <glyph glyph-name="Euro" unicode="&#x20ac;" 
d="M571 571h-21q4 49 -25.5 74t-83.5 25q-82 0 -134.5 -63t-88.5 -185h268l-23 -38h-255q-4 -12 -8 -32q-5 -25 -6 -33h228l-24 -38h-211q-18 -120 12.5 -184t107.5 -64q49 0 90 24.5t60 75.5h21l-23 -82q-62 -58 -178 -58q-228 0 -190 288h-70l24 38h49q2 19 7 35
q2 16 7 30h-65l24 38h52q46 145 119.5 217.5t195.5 72.5q119 0 153 -57z" />
    <glyph glyph-name="afii61289" unicode="&#x2113;" horiz-adv-x="415" 
d="M342 126l16 -18q-84 -114 -192 -114q-70 0 -95 39q-13 23 -14.5 52.5t11.5 94.5l17 81l-68 -44l-8 25l84 57l28 131q26 122 47.5 175t61.5 91q50 50 101 50q44 0 60 -38.5t3 -95.5q-17 -83 -70 -153t-140 -143l-19 -92q-19 -100 -6.5 -136t58.5 -36q58 0 125 74zM221 489
l-26 -125q52 50 91.5 115.5t53.5 130.5q10 45 4.5 74.5t-27.5 29.5q-27 0 -48 -49t-48 -176z" />
    <glyph glyph-name="trademark" unicode="&#x2122;" horiz-adv-x="1000" 
d="M147 300v24h21q31 0 31 47v309h-48q-50 -1 -64 -64h-24v88h362v-88h-24q-14 63 -64 64h-48v-309q0 -47 31 -47h21v-24h-97h-97zM706 299l-140 291h-2v-198q0 -68 38 -68h14v-24h-133v24h15q36 0 36 68v237q-21 51 -69 51v24h139l142 -289l151 289h115v-24h-16
q-17 1 -27.5 -12t-10.5 -35v-262q0 -28 8 -37.5t31 -9.5h12v-24h-191v24h14q21 0 28.5 10t7.5 37v219h-2l-147 -291h-13z" />
    <glyph glyph-name="Omega" unicode="&#x2126;" horiz-adv-x="727" 
d="M662 146l-56 -146h-237l-3 19q7 10 40 54.5t51 71.5t44.5 70.5t43 85t25.5 82.5q31 149 -8 219t-119 70q-84 0 -150 -70t-98 -224q-8 -37 -9 -77.5t2 -71t13 -70.5t16.5 -62t19.5 -60l6 -18l-12 -19h-235l7 146l26 2q5 -47 17.5 -61.5t43.5 -14.5h103q-14 15 -24 26.5
t-24.5 31.5t-24.5 38t-19.5 44t-13.5 51.5t-3.5 57.5t7.5 65q31 143 133.5 230.5t228.5 87.5q128 0 191 -84t32 -227q-11 -51 -36 -99t-63 -90t-68 -69.5t-73 -62.5h109q32 0 48.5 13t42.5 63z" />
    <glyph glyph-name="estimated" unicode="&#x212e;" horiz-adv-x="955" 
d="M921 341h-646q-6 0 -6 -4v-196q0 -9 9 -22q103 -106 245 -106q153 0 257 119h57q-54 -64 -137.5 -101.5t-178.5 -37.5q-165 0 -281.5 105t-116.5 253q0 149 116.5 254t281.5 105q166 0 283 -105t117 -254v-10zM775 367v197q0 13 -10 23q-104 102 -242 102
q-141 0 -244 -105q-10 -12 -10 -25v-192q0 -6 6 -6h495q5 0 5 6z" />
    <glyph glyph-name="partialdiff" unicode="&#x2202;" horiz-adv-x="533" 
d="M295 439h1q36 0 69 -17.5t49 -51.5q24 77 32 108q21 90 7 158q-8 38 -37 65.5t-72 27.5q-67 0 -151 -58q-8 -1 -14.5 11t-7.5 26.5t5 27.5q74 42 150 42q135 0 178 -143q30 -96 0 -235q-32 -151 -102 -252q-103 -154 -239 -154q-83 0 -121 54t-19 148q21 98 94 167
q81 76 178 76zM309 398h-1q-67 0 -119 -59q-61 -72 -85 -189q-12 -54 5.5 -89.5t60.5 -35.5q65 0 136 106q48 73 90 195q-6 25 -29 48.5t-58 23.5z" />
    <glyph glyph-name="Delta" unicode="&#x2206;" horiz-adv-x="636" 
d="M538 0h-564l5 26l399 666l43 12l123 -678zM435 49l-90 520l-306 -520h396z" />
    <glyph glyph-name="product" unicode="&#x220f;" horiz-adv-x="773" 
d="M746 696v-27q-64 -4 -77.5 -15.5t-13.5 -57.5v-573q0 -51 14 -64.5t75 -18.5v-27h-262v27q58 5 70 17t12 66v606q0 21 -6.5 27t-29.5 6h-198q-22 0 -28 -5t-6 -25v-609q0 -53 10.5 -65.5t64.5 -17.5v-27h-255v27q60 5 74 18t14 65v573q0 46 -14 57.5t-78 15.5v27h634z
" />
    <glyph glyph-name="summation" unicode="&#x2211;" horiz-adv-x="639" 
d="M617 101l-44 -192h-459v25l224 344l-219 393v25h454q1 -25 12 -163l-28 -6q-11 64 -33 103q-11 20 -31 26.5t-74 6.5h-186l184 -324l-223 -350h254q66 0 88 18t53 102z" />
    <glyph glyph-name="minus" unicode="&#x2212;" horiz-adv-x="600" 
d="M47 211v84h506v-84h-506z" />
    <glyph glyph-name="uni2215" unicode="&#x2215;" horiz-adv-x="167" 
d="M-164 -16l463 736h45l-463 -736h-45z" />
    <glyph glyph-name="uni2219" unicode="&#x2219;" horiz-adv-x="278" 
d="M74 289q0 29 22 50.5t50 21.5t50 -21.5t22 -50.5t-22 -50.5t-50 -21.5t-50 21.5t-22 50.5z" />
    <glyph glyph-name="radical" unicode="&#x221a;" horiz-adv-x="641" 
d="M625 888l-168 -1039l-21 -11l-217 551l-86 -41l-12 33l159 74l165 -435h2l137 877z" />
    <glyph glyph-name="infinity" unicode="&#x221e;" horiz-adv-x="785" 
d="M738 288v-1q0 -72 -45.5 -116.5t-106.5 -44.5q-44 0 -85 26t-91 87q-47 -55 -87.5 -84t-93.5 -29q-61 0 -105.5 44.5t-44.5 112.5q0 70 44.5 115t112.5 45q50 0 92 -29t86 -83q54 61 82 81q45 31 96 31q64 0 105 -43t41 -112zM236 182h1q26 0 52.5 15.5t41 30.5t40.5 44
q5 6 8 9q-50 63 -75 82q-34 25 -73 25q-42 0 -67.5 -30t-25.5 -76q0 -42 28 -71t70 -29zM586 388h-1q-18 0 -34.5 -6t-34 -21t-26.5 -23t-27 -29t-20 -23q49 -58 79.5 -81t66.5 -23q41 0 66 31t25 70q0 48 -26 76.5t-68 28.5z" />
    <glyph glyph-name="integral" unicode="&#x222b;" horiz-adv-x="467" 
d="M251 11l-20 411q-21 423 156 423q22 0 41.5 -12.5t20.5 -34.5q0 -22 -13.5 -34t-32.5 -12q-18 0 -30.5 24.5t-22.5 24.5q-47 0 -40 -166l19 -383q21 -452 -158 -452q-27 0 -44.5 14.5t-17.5 35.5q-1 20 15 34t38 14q15 0 27.5 -26t22.5 -26q22 0 32.5 44.5t6.5 120.5z
" />
    <glyph glyph-name="approxequal" unicode="&#x2248;" horiz-adv-x="567" 
d="M489 435l38 -34q-50 -96 -129 -96q-27 0 -49.5 8.5t-60.5 30.5q-51 33 -86 33q-30 0 -51 -18.5t-43 -52.5l-39 33q22 43 59.5 69.5t79.5 26.5q13 0 25.5 -2.5t24.5 -7.5t19.5 -8.5t20 -10.5t15.5 -9q2 -1 9.5 -5.5t9.5 -5.5t8.5 -5t8.5 -5t8 -3.5t8.5 -3.5t7.5 -2.5t9 -2
t8.5 -1t9.5 -0.5q46 0 89 72zM489 263l38 -34q-50 -96 -129 -96q-43 0 -110 39q-53 33 -86 33q-30 0 -50.5 -18.5t-43.5 -53.5l-39 33q22 44 59 70t79 26q14 0 26.5 -2t25 -7t19 -8.5t20 -11t15.5 -8.5q3 -2 16.5 -10t18 -10t15 -6.5t19 -6t18.5 -1.5q27 0 46.5 17t42.5 55z
" />
    <glyph glyph-name="notequal" unicode="&#x2260;" horiz-adv-x="585" 
d="M437 499l-41 -90h141v-59h-164l-61 -137h225v-59h-248l-50 -111l-47 19l42 92h-138v59h161l61 137h-222v59h245l49 110z" />
    <glyph glyph-name="lessequal" unicode="&#x2264;" horiz-adv-x="603" 
d="M553 101l-434 218v63l433 218v-69l-372 -179v-2l373 -180v-69zM556 2h-442v60h442v-60z" />
    <glyph glyph-name="greaterequal" unicode="&#x2265;" horiz-adv-x="603" 
d="M120 600l434 -218v-63l-434 -218v69l372 180v2l-372 179v69zM554 2h-439v60h439v-60z" />
    <glyph glyph-name="lozenge" unicode="&#x25ca;" horiz-adv-x="647" 
d="M600 335l-196 -405h-71l-195 405l197 408h69zM533 335l-162 344h-3l-163 -343l163 -344h3z" />
    <glyph glyph-name="zero.taboldstyle" unicode="&#xf643;" 
d="M51 177q0 124 83.5 212.5t203.5 88.5q77 0 122 -47.5t45 -129.5q0 -33 -9 -72.5t-30 -82.5t-50.5 -78t-76 -57.5t-101.5 -22.5q-84 0 -135.5 51t-51.5 138zM177 136q0 -67 26.5 -95.5t64.5 -28.5q92 0 155.5 95t63.5 193q0 61 -29.5 104.5t-79.5 43.5q-60 0 -108 -56.5
t-70.5 -126.5t-22.5 -129z" />
    <glyph glyph-name="one.taboldstyle" unicode="&#xf644;" 
d="M77 0l5 18h67l119 430h-78l5 18h284l-5 -18h-72l-121 -430h82l-5 -18h-281z" />
    <glyph glyph-name="two.taboldstyle" unicode="&#xf645;" 
d="M388 0h-351q21 53 60.5 91t79 59.5t76 44.5t59.5 61.5t23 95.5q0 44 -25 73t-72 29q-26 0 -54 -14t-28 -33q0 -12 25.5 -24.5t31.5 -20.5q11 -14 11 -32q0 -23 -15.5 -38t-41.5 -15q-29 0 -47 19.5t-18 55.5q0 50 45.5 88t133.5 38q86 0 130 -39t44 -100q0 -39 -19 -68.5
t-54 -50.5t-71.5 -36t-86 -35.5t-81.5 -38.5v-2h273l23 42l16 -5q-35 -67 -67 -145z" />
    <glyph glyph-name="three.taboldstyle" unicode="&#xf646;" 
d="M123 152l5 18q81 0 113 5t50 21q30 27 51 85.5t21 105.5q0 73 -85 73q-39 0 -69 -19t-30 -37q0 -12 23 -12q21 0 34.5 -14.5t13.5 -36.5q0 -25 -16 -43t-45 -18q-30 0 -47.5 19t-17.5 49q0 50 46 90t118 40q95 0 142 -46t47 -110q0 -149 -236 -165v-2q77 -18 119.5 -59
t42.5 -101q0 -35 -14.5 -73t-43 -74.5t-79.5 -60t-115 -23.5q-77 0 -123.5 37t-46.5 102q0 39 21.5 68t55.5 29q30 0 48.5 -16t18.5 -51q0 -25 -15 -42t-38 -17q-16 0 -33.5 8.5t-19.5 8.5q-14 0 -14 -16q0 -36 33 -61.5t80 -25.5q45 0 71 27q29 29 58.5 110.5t29.5 139.5
q0 87 -120 87h-34z" />
    <glyph glyph-name="four.taboldstyle" unicode="&#xf647;" 
d="M159 -219l64 219h-233l7 25l417 453h67l-115 -406h101l-19 -72h-102l-61 -219h-126zM245 72l84 287l-2 2l-267 -289h185z" />
    <glyph glyph-name="five.taboldstyle" unicode="&#xf648;" 
d="M117 85l-13 3q38 116 52.5 162.5t31 109.5t26.5 118q85 -44 145 -44q39 0 65.5 12t59.5 42q-11 -74 -73 -121t-139 -47q-13 0 -39 4.5t-35 8.5l-58 -182l2 -2q62 65 137 65q69 0 115.5 -43t46.5 -120q0 -101 -94 -194t-216 -93q-60 0 -97.5 34.5t-37.5 77.5
q0 38 22.5 60.5t53.5 22.5q25 0 42 -17t17 -43q0 -39 -32 -51q-37 -14 -37 -32q0 -16 20.5 -28t47.5 -12q44 0 80 37t56.5 91t31.5 105.5t11 87.5q0 52 -17 72.5t-51 20.5q-64 0 -124 -105z" />
    <glyph glyph-name="six.taboldstyle" unicode="&#xf649;" 
d="M57 219q0 86 28 165.5t72 136.5t96.5 100.5t104 65t93.5 21.5q47 0 71.5 -22.5t24.5 -55.5q0 -28 -16 -47t-46 -19q-27 0 -42.5 14t-15.5 37q0 18 12 34q14 17 14 23q0 18 -22 18q-52 0 -118 -112.5t-110 -253t-44 -223.5q0 -47 21 -71t52 -24q52 0 82 66q29 62 50 149
t21 126q0 79 -40 79q-10 0 -18 -5.5t-8 -14.5t9.5 -26.5t9.5 -39.5t-15 -38t-37 -16q-21 0 -35.5 15.5t-14.5 39.5q0 38 32.5 67.5t87.5 29.5q57 0 100 -41.5t43 -130.5q0 -61 -29 -123t-89.5 -108.5t-137.5 -46.5q-83 0 -134.5 64t-51.5 167z" />
    <glyph glyph-name="seven.taboldstyle" unicode="&#xf64a;" 
d="M97 266l-12 6q65 126 101 247l13 -6q-5 -26 -11 -47q84 -32 184 -32q95 0 184 32l9 -8q-114 -129 -236 -312t-122 -230q0 -26 18 -30q23 -5 38 -21.5t15 -39.5q0 -31 -18.5 -51.5t-48.5 -20.5q-29 0 -47 20.5t-18 46.5q0 54 81 195.5t217 316.5l-2 2q-98 -20 -145 -20
q-74 0 -161 24z" />
    <glyph glyph-name="eight.taboldstyle" unicode="&#xf64b;" 
d="M374 127q0 33 -23.5 75.5t-99.5 141.5q-93 -38 -139 -89t-46 -107q0 -47 28.5 -81t64 -47.5t70.5 -13.5q71 0 108 34.5t37 86.5zM282 595q0 -54 97 -189q81 42 116 81.5t35 85.5q0 52 -37.5 84.5t-97.5 32.5q-46 0 -79.5 -25t-33.5 -70zM48 148q0 64 53 120t142 90
q-37 59 -47 86t-10 62q0 80 59.5 141t147.5 61q72 0 113.5 -38t41.5 -96q0 -97 -160 -183q88 -112 88 -183q0 -84 -63.5 -152t-178.5 -68q-80 0 -133 44t-53 116z" />
    <glyph glyph-name="nine.taboldstyle" unicode="&#xf64c;" 
d="M59 190q0 117 76 202.5t190 85.5q81 0 130.5 -62.5t49.5 -161.5q0 -102 -41.5 -196.5t-104 -157t-132 -99.5t-128.5 -37q-47 0 -75.5 22.5t-28.5 60.5q0 28 17.5 47.5t45.5 19.5t42.5 -16t14.5 -37q0 -15 -15 -36.5t-15 -26.5q0 -6 8 -11t20 -5q49 0 121 115t123.5 256.5
t51.5 217.5q0 41 -18 65t-50 24q-30 0 -56 -25q-34 -33 -73 -152.5t-39 -175.5q0 -64 38 -64q27 0 27 25q0 5 -10 22.5t-10 35.5q0 23 14 37t37 14q21 0 36 -13.5t15 -36.5q0 -33 -30.5 -64.5t-82.5 -31.5q-23 0 -46.5 8t-47.5 24.5t-39 49.5t-15 77z" />
    <glyph glyph-name="dollar.taboldstyle" unicode="&#xf653;" 
d="M314 467l65 226q-3 1 -10 1q-39 0 -75.5 -12t-63.5 -40.5t-27 -68.5q0 -33 28.5 -56.5t82.5 -49.5zM290 308l-85 -293q20 -5 54 -5q81 0 130 47t49 129q0 27 -23 51t-41 33t-69 31q-10 5 -15 7zM402 690l-68 -232q4 -2 26.5 -12.5t28.5 -13.5t26 -13.5t26.5 -15.5
t22.5 -16t22 -18.5t16.5 -19.5t14.5 -23t7.5 -24.5t3.5 -28.5q0 -117 -77 -199t-192 -82q-29 0 -59 7l-33 -115h-23l35 120q-36 11 -86 38t-65 27q-28 0 -45 -36l-13 5q60 184 75 240l15 -5q0 -5 -1.5 -20.5t-1.5 -22.5q0 -175 127 -210l87 297q-33 15 -51.5 26t-40.5 31.5
t-32 50.5t-10 71q0 81 61.5 148.5t162.5 67.5q18 0 23 -1l32 109h23l-32 -111q44 -7 100.5 -32.5t65.5 -25.5q5 0 9.5 4.5t10 12.5t6.5 9l12 -4q-38 -111 -62 -206l-15 3q3 23 3 44q0 68 -36 117t-99 59z" />
    <glyph glyph-name="cent.taboldstyle" unicode="&#xf654;" 
d="M185 -87l23 82q-66 10 -101.5 50t-35.5 102q0 63 25 118.5t64.5 92.5t85 59.5t88.5 27.5l24 86h20l-24 -85q55 0 93 -21.5t38 -72.5q0 -28 -20.5 -50.5t-53.5 -22.5q-27 0 -45.5 19t-18.5 49q0 41 31 56q2 1 9 3.5t10 5t3 5.5q0 11 -41 11h-10l-115 -413q9 -5 28 -5
q49 0 95.5 37.5t69.5 88.5l15 -6q-70 -138 -194 -138q-8 0 -20 2l-23 -81h-20zM216 22l111 400q-54 -26 -95 -158.5t-41 -186.5q0 -41 25 -55z" />
    <glyph glyph-name="dollar.oldstyle" unicode="&#xf724;" 
d="M314 467l65 226q-3 1 -10 1q-39 0 -75.5 -12t-63.5 -40.5t-27 -68.5q0 -33 28.5 -56.5t82.5 -49.5zM290 308l-85 -293q20 -5 54 -5q81 0 130 47t49 129q0 27 -23 51t-41 33t-69 31q-10 5 -15 7zM402 690l-68 -232q4 -2 26.5 -12.5t28.5 -13.5t26 -13.5t26.5 -15.5
t22.5 -16t22 -18.5t16.5 -19.5t14.5 -23t7.5 -24.5t3.5 -28.5q0 -117 -77 -199t-192 -82q-29 0 -59 7l-33 -115h-23l35 120q-36 11 -86 38t-65 27q-28 0 -45 -36l-13 5q60 184 75 240l15 -5q0 -5 -1.5 -20.5t-1.5 -22.5q0 -175 127 -210l87 297q-33 15 -51.5 26t-40.5 31.5
t-32 50.5t-10 71q0 81 61.5 148.5t162.5 67.5q18 0 23 -1l32 109h23l-32 -111q44 -7 100.5 -32.5t65.5 -25.5q5 0 9.5 4.5t10 12.5t6.5 9l12 -4q-38 -111 -62 -206l-15 3q3 23 3 44q0 68 -36 117t-99 59z" />
    <glyph glyph-name="zero.oldstyle" unicode="&#xf730;" horiz-adv-x="538" 
d="M42 177q0 124 83.5 212.5t203.5 88.5q77 0 122 -47.5t45 -129.5q0 -33 -9 -72.5t-30 -82.5t-50.5 -78t-76 -57.5t-101.5 -22.5q-84 0 -135.5 51t-51.5 138zM168 136q0 -67 26.5 -95.5t64.5 -28.5q92 0 155.5 95t63.5 193q0 61 -29.5 104.5t-79.5 43.5q-60 0 -108 -56.5
t-70.5 -126.5t-22.5 -129z" />
    <glyph glyph-name="one.oldstyle" unicode="&#xf731;" horiz-adv-x="352" 
d="M-25 0l5 18h67l119 430h-78l5 18h284l-5 -18h-72l-121 -430h82l-5 -18h-281z" />
    <glyph glyph-name="two.oldstyle" unicode="&#xf732;" horiz-adv-x="444" 
d="M332 0h-351q21 53 60.5 91t79 59.5t76 44.5t59.5 61.5t23 95.5q0 44 -25 73t-72 29q-26 0 -54 -14t-28 -33q0 -12 25.5 -24.5t31.5 -20.5q11 -14 11 -32q0 -23 -15.5 -38t-41.5 -15q-29 0 -47 19.5t-18 55.5q0 50 45.5 88t133.5 38q86 0 130 -39t44 -100q0 -39 -19 -68.5
t-54 -50.5t-71.5 -36t-86 -35.5t-81.5 -38.5v-2h273l23 42l16 -5q-35 -67 -67 -145z" />
    <glyph glyph-name="three.oldstyle" unicode="&#xf733;" horiz-adv-x="464" 
d="M77 152l5 18q81 0 113 5t50 21q30 27 51 85.5t21 105.5q0 73 -85 73q-39 0 -69 -19t-30 -37q0 -12 23 -12q21 0 34.5 -14.5t13.5 -36.5q0 -25 -16 -43t-45 -18q-30 0 -47.5 19t-17.5 49q0 50 46 90t118 40q95 0 142 -46t47 -110q0 -149 -236 -165v-2q77 -18 119.5 -59
t42.5 -101q0 -35 -14.5 -73t-43 -74.5t-79.5 -60t-115 -23.5q-77 0 -123.5 37t-46.5 102q0 39 21.5 68t55.5 29q30 0 48.5 -16t18.5 -51q0 -25 -15 -42t-38 -17q-16 0 -33.5 8.5t-19.5 8.5q-14 0 -14 -16q0 -36 33 -61.5t80 -25.5q45 0 71 27q29 29 58.5 110.5t29.5 139.5
q0 87 -120 87h-34z" />
    <glyph glyph-name="four.oldstyle" unicode="&#xf734;" horiz-adv-x="464" 
d="M113 -219l64 219h-233l7 25l417 453h67l-115 -406h101l-19 -72h-102l-61 -219h-126zM199 72l84 287l-2 2l-267 -289h185z" />
    <glyph glyph-name="five.oldstyle" unicode="&#xf735;" horiz-adv-x="444" 
d="M61 85l-13 3q38 116 52.5 162.5t31 109.5t26.5 118q85 -44 145 -44q39 0 65.5 12t59.5 42q-11 -74 -73 -121t-139 -47q-13 0 -39 4.5t-35 8.5l-58 -182l2 -2q62 65 137 65q69 0 115.5 -43t46.5 -120q0 -101 -94 -194t-216 -93q-60 0 -97.5 34.5t-37.5 77.5
q0 38 22.5 60.5t53.5 22.5q25 0 42 -17t17 -43q0 -39 -32 -51q-37 -14 -37 -32q0 -16 20.5 -28t47.5 -12q44 0 80 37t56.5 91t31.5 105.5t11 87.5q0 52 -17 72.5t-51 20.5q-64 0 -124 -105z" />
    <glyph glyph-name="six.oldstyle" unicode="&#xf736;" horiz-adv-x="538" 
d="M48 219q0 86 28 165.5t72 136.5t96.5 100.5t104 65t93.5 21.5q47 0 71.5 -22.5t24.5 -55.5q0 -28 -16 -47t-46 -19q-27 0 -42.5 14t-15.5 37q0 18 12 34q14 17 14 23q0 18 -22 18q-52 0 -118 -112.5t-110 -253t-44 -223.5q0 -47 21 -71t52 -24q52 0 82 66q29 62 50 149
t21 126q0 79 -40 79q-10 0 -18 -5.5t-8 -14.5t9.5 -26.5t9.5 -39.5t-15 -38t-37 -16q-21 0 -35.5 15.5t-14.5 39.5q0 38 32.5 67.5t87.5 29.5q57 0 100 -41.5t43 -130.5q0 -61 -29 -123t-89.5 -108.5t-137.5 -46.5q-83 0 -134.5 64t-51.5 167z" />
    <glyph glyph-name="seven.oldstyle" unicode="&#xf737;" horiz-adv-x="500" 
d="M69 266l-12 6q65 126 101 247l13 -6q-5 -26 -11 -47q84 -32 184 -32q95 0 184 32l9 -8q-114 -129 -236 -312t-122 -230q0 -26 18 -30q23 -5 38 -21.5t15 -39.5q0 -31 -18.5 -51.5t-48.5 -20.5q-29 0 -47 20.5t-18 46.5q0 54 81 195.5t217 316.5l-2 2q-98 -20 -145 -20
q-74 0 -161 24z" />
    <glyph glyph-name="eight.oldstyle" unicode="&#xf738;" horiz-adv-x="520" 
d="M356 127q0 33 -23.5 75.5t-99.5 141.5q-93 -38 -139 -89t-46 -107q0 -47 28.5 -81t64 -47.5t70.5 -13.5q71 0 108 34.5t37 86.5zM264 595q0 -54 97 -189q81 42 116 81.5t35 85.5q0 52 -37.5 84.5t-97.5 32.5q-46 0 -79.5 -25t-33.5 -70zM30 148q0 64 53 120t142 90
q-37 59 -47 86t-10 62q0 80 59.5 141t147.5 61q72 0 113.5 -38t41.5 -96q0 -97 -160 -183q88 -112 88 -183q0 -84 -63.5 -152t-178.5 -68q-80 0 -133 44t-53 116z" />
    <glyph glyph-name="nine.oldstyle" unicode="&#xf739;" horiz-adv-x="538" 
d="M50 190q0 117 76 202.5t190 85.5q81 0 130.5 -62.5t49.5 -161.5q0 -102 -41.5 -196.5t-104 -157t-132 -99.5t-128.5 -37q-47 0 -75.5 22.5t-28.5 60.5q0 28 17.5 47.5t45.5 19.5t42.5 -16t14.5 -37q0 -15 -15 -36.5t-15 -26.5q0 -6 8 -11t20 -5q49 0 121 115t123.5 256.5
t51.5 217.5q0 41 -18 65t-50 24q-30 0 -56 -25q-34 -33 -73 -152.5t-39 -175.5q0 -64 38 -64q27 0 27 25q0 5 -10 22.5t-10 35.5q0 23 14 37t37 14q21 0 36 -13.5t15 -36.5q0 -33 -30.5 -64.5t-82.5 -31.5q-23 0 -46.5 8t-47.5 24.5t-39 49.5t-15 77z" />
    <glyph glyph-name="cent.oldstyle" unicode="&#xf7a2;" 
d="M185 -87l23 82q-66 10 -101.5 50t-35.5 102q0 63 25 118.5t64.5 92.5t85 59.5t88.5 27.5l24 86h20l-24 -85q55 0 93 -21.5t38 -72.5q0 -28 -20.5 -50.5t-53.5 -22.5q-27 0 -45.5 19t-18.5 49q0 41 31 56q2 1 9 3.5t10 5t3 5.5q0 11 -41 11h-10l-115 -413q9 -5 28 -5
q49 0 95.5 37.5t69.5 88.5l15 -6q-70 -138 -194 -138q-8 0 -20 2l-23 -81h-20zM216 22l111 400q-54 -26 -95 -158.5t-41 -186.5q0 -41 25 -55z" />
    <glyph glyph-name="fi" unicode="&#xfb01;" horiz-adv-x="611" 
d="M49 416l4 18h73q94 301 329 301q30 0 55 -4.5t49 -16t37.5 -33t13.5 -52.5t-20.5 -49.5t-52.5 -18.5q-25 0 -45 17.5t-20 41.5t13.5 39.5t27 23.5t13.5 13q0 14 -21 20.5t-39 6.5q-35 0 -65 -14.5t-52 -43t-37 -53t-28 -65.5t-18 -59.5t-13 -53.5h222q61 0 92 22
l-109 -357q-15 -53 -15 -54q0 -21 18 -21q21 0 47 28.5t38 52.5l14 -8q-62 -109 -148 -109q-31 0 -57 23t-26 55q0 24 12 64l89 286h-180l-56 -256q-6 -26 -20.5 -71t-41 -108t-57.5 -116.5t-72 -91.5t-82 -38q-30 0 -56.5 17t-26.5 46q0 32 18 48.5t46 16.5q30 0 46 -16.5
t16 -38.5t-13 -36.5t-30 -16.5v-2q46 0 67 35.5t36 121.5q9 48 23.5 129t23.5 129.5t19.5 105t18 91t12.5 51.5h-72z" />
    <glyph glyph-name="fl" unicode="&#xfb02;" horiz-adv-x="611" 
d="M49 416l4 18h73q94 301 331 301q64 0 94 -42l93 42l-186 -636q-15 -53 -15 -54q0 -21 18 -21q21 0 47 28.5t38 52.5l14 -8q-62 -109 -148 -109q-31 0 -57 23t-26 55q0 24 12 64l137 468q-48 11 -48 52q0 20 8 33t16 18.5t8 8.5q0 5 -8.5 9t-18.5 4q-25 0 -47 -10.5
t-38.5 -31.5t-29 -42.5t-23.5 -53.5t-17.5 -53.5t-15 -54t-11.5 -43.5h86l-4 -18h-85l-56 -256q-6 -26 -20.5 -71t-41 -108t-57.5 -116.5t-72 -91.5t-82 -38q-30 0 -56.5 17t-26.5 46q0 32 18 48.5t46 16.5q30 0 46 -16.5t16 -38.5t-13 -36.5t-30 -16.5v-2q46 0 67 35.5
t36 121.5q9 48 23.5 129t23.5 129.5t19.5 105t18 91t12.5 51.5h-72z" />
    <glyph glyph-name="one.superior" horiz-adv-x="361" 
d="M88 286l3 12h45l106 343q-52 -26 -124 -50l3 16q105 36 219 105h15l-126 -414h47l-3 -12h-185z" />
    <glyph glyph-name="two.superior" horiz-adv-x="361" 
d="M346 396l-63 -110h-241q13 34 45 68.5t66.5 63.5t67.5 60.5t54 73.5t21 89q0 59 -61 59q-32 0 -63 -18t-31 -37q0 -10 8.5 -15t19.5 -7.5t19.5 -10.5t8.5 -22q0 -18 -10 -31.5t-30 -13.5q-46 0 -46 56q0 50 42.5 80.5t98.5 30.5t95 -24.5t39 -73.5t-33.5 -87.5t-76 -59.5
t-94.5 -50.5t-78 -58.5h189q20 0 37 38h16z" />
    <glyph glyph-name="three.superior" horiz-adv-x="361" 
d="M150 515v10h55q56 0 80.5 38.5t24.5 97.5q0 17 -10.5 26t-22.5 11t-31 2q-22 0 -43 -11.5t-21 -20.5q0 -3 11 -5t22.5 -10.5t11.5 -26.5q0 -16 -10.5 -25t-27.5 -9q-21 0 -33.5 11.5t-12.5 30.5q0 35 37 56.5t78 21.5q56 0 93 -23t37 -70q0 -98 -156 -101v-2
q51 -11 80 -33t29 -65q0 -63 -52 -100.5t-116 -37.5q-52 0 -87 21.5t-35 62.5q0 22 14.5 42t37.5 20q19 0 32 -11.5t13 -29.5q0 -15 -9 -26t-24 -11q-10 0 -21.5 4.5t-13.5 4.5q-11 0 -11 -14q0 -22 28 -33.5t62 -11.5q40 0 69 58t29 106q0 25 -13 36.5t-32 12.5z" />
    <glyph glyph-name="a.superior" horiz-adv-x="361" 
d="M404 705l-64 -200q-13 -39 -13 -47q0 -9 12 -9q5 0 11 3t11 6.5t11 10t9.5 10.5t8.5 10.5t6 7.5l8 -5l-6 -7q-6 -7 -7 -8.5t-7 -8t-8 -8.5l-7.5 -7.5t-9 -7.5t-9 -5.5t-9.5 -5t-9.5 -2.5t-10.5 -1q-38 0 -52 17t-14 46h-2q-35 -63 -89 -63q-46 0 -64 26t-18 73
q0 64 48.5 123t113.5 59q50 0 61 -41h2l11 34h86zM260 529q33 86 33 129q0 17 -10 29.5t-26 12.5q-19 0 -36 -30t-43 -106q-24 -68 -24 -97q0 -24 23 -24q22 0 44.5 23.5t38.5 62.5z" />
    <glyph glyph-name="o.superior" horiz-adv-x="325" 
d="M377 602q0 -65 -51.5 -118t-120.5 -53q-56 0 -83.5 32t-27.5 85q0 59 53 111.5t117 52.5q53 0 83 -30.5t30 -79.5zM271 700q-18 0 -32 -14t-21 -29t-15 -39l-3 -9q-34 -89 -34 -128q0 -38 38 -38q21 0 38 19t24 48q1 5 11.5 43.5t19 73.5t8.5 47q0 26 -34 26z" />
    </font>
</defs>
</svg>
